<?xml version="1.0" encoding="UTF-8"?>
<svg version="1.1" xmlns="http://www.w3.org/2000/svg" width="300" height="300">
<path d="M0 0 C99 0 198 0 300 0 C300 99 300 198 300 300 C201 300 102 300 0 300 C0 201 0 102 0 0 Z " fill="#FEFEFE" transform="translate(0,0)"/>
<path d="M0 0 C3.5625 1.8125 3.5625 1.8125 6 4 C6.78375 4.5775 7.5675 5.155 8.375 5.75 C8.91125 6.1625 9.4475 6.575 10 7 C10.7425 6.21625 11.485 5.4325 12.25 4.625 C17.50467485 -0.39082599 21.6821089 -0.43604918 28.796875 -0.31640625 C34.35556016 0.23268338 37.16506157 2.36343329 41.3125 6.0625 C44.55518424 11.70717257 45.60517302 18.19695281 44.5 24.625 C41.85017717 34.00770599 34.51669763 41.09278865 28 48 C27.195625 48.86625 26.39125 49.7325 25.5625 50.625 C22.25846239 53.68727876 18.75097253 56.45163624 15.20703125 59.23046875 C12.96559241 60.96150108 12.96559241 60.96150108 11 63 C7.61477311 62.65152076 5.41796227 61.08323439 2.75 59.0625 C2.04359375 58.53785156 1.3371875 58.01320312 0.609375 57.47265625 C0.07828125 56.98667969 -0.4528125 56.50070313 -1 56 C-1 55.34 -1 54.68 -1 54 C-1.58523437 53.72800781 -2.17046875 53.45601562 -2.7734375 53.17578125 C-9.26517921 49.74768606 -13.89002636 44.15615987 -18.3125 38.4375 C-18.94309326 37.62478638 -18.94309326 37.62478638 -19.58642578 36.7956543 C-25.36566923 29.12369119 -26.90592647 23.48032915 -26 14 C-24.78324213 8.04775202 -20.88240078 4.30671689 -16 1 C-10.81381682 -0.72872773 -5.40813733 -0.49285981 0 0 Z " fill="#FCFCFB" transform="translate(141,78)"/>
<path d="M0 0 C0.18024081 3.60481619 -0.08898518 6.71666184 -1 10.1875 C-2.12685634 13.82672877 -2.12685634 13.82672877 -2 17 C-1.59007812 16.43410156 -1.18015625 15.86820313 -0.7578125 15.28515625 C-0.21898437 14.55167969 0.31984375 13.81820312 0.875 13.0625 C1.40867188 12.33160156 1.94234375 11.60070312 2.4921875 10.84765625 C4 9 4 9 6 8 C7.99960012 7.960008 10.00047242 7.95653201 12 8 C11.40655613 12.44664981 9.60735186 15.89805279 7.4375 19.75 C3.92191057 26.13222091 0.75796346 32.62151973 -2.20922852 39.27636719 C-5.70528056 46.94843737 -10.19546434 51.1213316 -17.31054688 55.51757812 C-21.40398606 58.1851596 -22.95976565 60.64215805 -25 65 C-28.125 65.75 -28.125 65.75 -31 66 C-31.33 66.66 -31.66 67.32 -32 68 C-32.66 68 -33.32 68 -34 68 C-35.84566532 71.98393611 -36.36022829 75.44376683 -36.625 79.8125 C-36.69976562 80.97394531 -36.77453125 82.13539063 -36.8515625 83.33203125 C-36.90054688 84.21246094 -36.94953125 85.09289062 -37 86 C-44.38929527 87.34350823 -52.72506783 88.18768843 -60 86 C-60.80832699 72.28089474 -58.27563934 60.49663645 -49 50 C-44.27325559 45.47827101 -35.59748555 40 -29 40 C-28.92523438 39.41734375 -28.85046875 38.8346875 -28.7734375 38.234375 C-27.40108797 29.67737205 -24.28611929 21.1440601 -18 15 C-16.79950593 11.89992799 -16.79950593 11.89992799 -16 9 C-15.34 9 -14.68 9 -14 9 C-13.731875 8.360625 -13.46375 7.72125 -13.1875 7.0625 C-12 5 -12 5 -9 4 C-7.97980427 3.0206121 -6.97850195 2.02104551 -6 1 C-4 0 -4 0 0 0 Z " fill="#FBFBFA" transform="translate(216,95)"/>
<path d="M0 0 C3.41120578 -0.38985209 4.70709748 -0.20717495 7.5625 1.8125 C8.366875 2.534375 9.17125 3.25625 10 4 C11.32901064 5.00573778 12.66073801 6.00795408 14 7 C13.67 7.66 13.34 8.32 13 9 C12.01 8.34 11.02 7.68 10 7 C10.89227139 10.61065933 11.81792903 14.21192777 12.75 17.8125 C13.00265625 18.83666016 13.2553125 19.86082031 13.515625 20.91601562 C13.7734375 21.89892578 14.03125 22.88183594 14.296875 23.89453125 C14.64250488 25.25348511 14.64250488 25.25348511 14.99511719 26.63989258 C16.17720737 29.41619622 17.47142078 30.42306116 20 32 C19.67 29.69 19.34 27.38 19 25 C21.66184973 27.66184973 22.10848803 30.34187787 23.12109375 33.90625 C23.91769717 36.34415648 23.91769717 36.34415648 27 38 C26.67 36.35 26.34 34.7 26 33 C26.99 33.495 26.99 33.495 28 34 C28.625 36.5625 28.625 36.5625 29 39 C29.66 39 30.32 39 31 39 C31 39.66 31 40.32 31 41 C31.763125 41.20625 32.52625 41.4125 33.3125 41.625 C45.53416183 46.18222983 52.56719368 52.12317159 58 64 C60.51958793 71.05224868 60.47381249 78.59530255 60 86 C58.45461688 87.54538312 56.99828899 87.12967467 54.8515625 87.1328125 C54.01109375 87.13410156 53.170625 87.13539063 52.3046875 87.13671875 C51.42039063 87.13285156 50.53609375 87.12898438 49.625 87.125 C48.31015625 87.13080078 48.31015625 87.13080078 46.96875 87.13671875 C46.12570313 87.13542969 45.28265625 87.13414062 44.4140625 87.1328125 C43.6401416 87.13168457 42.8662207 87.13055664 42.06884766 87.12939453 C40 87 40 87 37 86 C36.98582031 85.05898437 36.97164062 84.11796875 36.95703125 83.1484375 C36.96426558 75.19614585 36.96426558 75.19614585 33.6875 68.25 C31.45144559 66.37795445 29.64840664 65.13503142 27 64 C26.67 63.34 26.34 62.68 26 62 C23.47266765 61.34444881 23.47266765 61.34444881 21 61 C20.9071875 60.09701172 20.9071875 60.09701172 20.8125 59.17578125 C19.65433467 56.07434814 17.92015608 55.65974536 15 54.1875 C5.14461364 48.23587057 0.58638017 36.95918515 -3.8046875 26.703125 C-5.62838427 22.578948 -7.75644622 18.61438008 -9.86328125 14.62890625 C-11 12 -11 12 -11 8 C-4.83423711 8.24179462 -4.83423711 8.24179462 -2.45703125 10.40234375 C-1.25706566 11.89790204 -0.123855 13.44643573 1 15 C1.33 15 1.66 15 2 15 C1.855625 14.33613281 1.71125 13.67226562 1.5625 12.98828125 C1.376875 12.10527344 1.19125 11.22226563 1 10.3125 C0.814375 9.44238281 0.62875 8.57226562 0.4375 7.67578125 C0.01027953 5.06287036 -0.07616201 2.64186962 0 0 Z " fill="#FCFCFB" transform="translate(83,95)"/>
<path d="M0 0 C0.18024081 3.60481619 -0.08898518 6.71666184 -1 10.1875 C-2.12685634 13.82672877 -2.12685634 13.82672877 -2 17 C-1.59007812 16.43410156 -1.18015625 15.86820313 -0.7578125 15.28515625 C-0.21898437 14.55167969 0.31984375 13.81820312 0.875 13.0625 C1.40867188 12.33160156 1.94234375 11.60070312 2.4921875 10.84765625 C4 9 4 9 6 8 C7.99960012 7.960008 10.00047242 7.95653201 12 8 C11.40655613 12.44664981 9.60735186 15.89805279 7.4375 19.75 C3.92191057 26.13222091 0.75796346 32.62151973 -2.20922852 39.27636719 C-5.70528056 46.94843737 -10.19546434 51.1213316 -17.31054688 55.51757812 C-21.40398606 58.1851596 -22.95976565 60.64215805 -25 65 C-28.125 65.75 -28.125 65.75 -31 66 C-31.33 66.66 -31.66 67.32 -32 68 C-32.66 68 -33.32 68 -34 68 C-35.84566532 71.98393611 -36.36022829 75.44376683 -36.625 79.8125 C-36.69976562 80.97394531 -36.77453125 82.13539063 -36.8515625 83.33203125 C-36.90054688 84.21246094 -36.94953125 85.09289062 -37 86 C-44.38929527 87.34350823 -52.72506783 88.18768843 -60 86 C-60.54170351 76.80608773 -59.86317103 68.47751422 -56 60 C-53.859375 57.62890625 -53.859375 57.62890625 -52 56 C-52.28746094 56.67546875 -52.57492188 57.3509375 -52.87109375 58.046875 C-54.15569831 61.40729384 -55.12284089 64.77719143 -56.0625 68.25 C-56.40410156 69.49265625 -56.74570313 70.7353125 -57.09765625 72.015625 C-58.06384584 76.28191671 -58.51693601 80.65242407 -59 85 C-52.73 84.67 -46.46 84.34 -40 84 C-39.855625 82.06125 -39.71125 80.1225 -39.5625 78.125 C-39.125 72.25 -39.125 72.25 -38 70 C-37.34 70 -36.68 70 -36 70 C-35.67322266 69.15695313 -35.67322266 69.15695313 -35.33984375 68.296875 C-33.55454596 65.2363645 -31.30449332 63.48923512 -28.5625 61.25 C-28.03188965 60.81244385 -27.5012793 60.3748877 -26.95458984 59.92407227 C-23.46053599 57.07524194 -19.84676206 54.48504358 -16.125 51.9375 C-9.33218131 47.08548665 -5.08794297 41.14297759 -3 33 C-3.721875 33.721875 -4.44375 34.44375 -5.1875 35.1875 C-6.115625 36.115625 -7.04375 37.04375 -8 38 C-8.78375 38.804375 -9.5675 39.60875 -10.375 40.4375 C-12.96446882 42.9653148 -15.65360441 45.27679297 -18.44921875 47.5703125 C-20.24681775 49.11481807 -20.24681775 49.11481807 -22 52 C-22.66 52 -23.32 52 -24 52 C-23.67 50.68 -23.34 49.36 -23 48 C-22.34 48 -21.68 48 -21 48 C-21 47.34 -21 46.68 -21 46 C-19.50155631 44.7384644 -17.94923574 43.54058457 -16.375 42.375 C-11.76608628 38.78737966 -7.93821397 35.08812663 -5 30 C-5 29.34 -5 28.68 -5 28 C-11.13626998 28.44899536 -15.28167757 31.21051729 -19.4921875 35.53125 C-22.83493183 38.78739474 -27.37567619 41.26010819 -32 42 C-31.67 41.34 -31.34 40.68 -31 40 C-30.34 40 -29.68 40 -29 40 C-28.92523438 39.41734375 -28.85046875 38.8346875 -28.7734375 38.234375 C-27.40108797 29.67737205 -24.28611929 21.1440601 -18 15 C-16.79950593 11.89992799 -16.79950593 11.89992799 -16 9 C-15.34 9 -14.68 9 -14 9 C-13.731875 8.360625 -13.46375 7.72125 -13.1875 7.0625 C-12 5 -12 5 -9 4 C-7.97980427 3.0206121 -6.97850195 2.02104551 -6 1 C-4 0 -4 0 0 0 Z " fill="#B2A69C" transform="translate(216,95)"/>
<path d="M0 0 C3.41120578 -0.38985209 4.70709748 -0.20717495 7.5625 1.8125 C8.366875 2.534375 9.17125 3.25625 10 4 C11.32901064 5.00573778 12.66073801 6.00795408 14 7 C13.67 7.66 13.34 8.32 13 9 C12.01 8.34 11.02 7.68 10 7 C10.89227139 10.61065933 11.81792903 14.21192777 12.75 17.8125 C13.00265625 18.83666016 13.2553125 19.86082031 13.515625 20.91601562 C13.7734375 21.89892578 14.03125 22.88183594 14.296875 23.89453125 C14.64250488 25.25348511 14.64250488 25.25348511 14.99511719 26.63989258 C16.17720737 29.41619622 17.47142078 30.42306116 20 32 C19.67 29.69 19.34 27.38 19 25 C21.66184973 27.66184973 22.10848803 30.34187787 23.12109375 33.90625 C23.91769717 36.34415648 23.91769717 36.34415648 27 38 C26.67 36.35 26.34 34.7 26 33 C26.99 33.495 26.99 33.495 28 34 C28.625 36.5625 28.625 36.5625 29 39 C29.66 39 30.32 39 31 39 C31 39.66 31 40.32 31 41 C31.763125 41.20625 32.52625 41.4125 33.3125 41.625 C41.21619864 44.57214187 48.13636349 47.95611264 53 55 C52.505 55.99 52.505 55.99 52 57 C51.195625 56.030625 50.39125 55.06125 49.5625 54.0625 C42.6265945 47.05509032 32.16275231 42.42245096 23 39 C23 38.34 23 37.68 23 37 C22.2575 36.773125 21.515 36.54625 20.75 36.3125 C18 35 18 35 16.25 32.5625 C13.09103661 28.96479169 9.53325359 28.19143203 5 27 C6.9463203 35.65031245 13.41022048 40.72650963 20.33203125 45.61328125 C22.52412734 47.4357499 23.35245172 49.24791979 24 52 C23.34 52 22.68 52 22 52 C20.84038571 50.60164159 19.68543713 49.19914431 18.5546875 47.77734375 C16.83736924 45.8140779 14.9895398 44.18547806 13 42.5 C4.58906745 35.26564402 4.58906745 35.26564402 3.1875 29.875 C3.03830486 27.58734112 3 25.29251878 3 23 C1.92339333 20.4587688 1.92339333 20.4587688 0.375 17.9375 C-0.11226562 17.08027344 -0.59953125 16.22304687 -1.1015625 15.33984375 C-3.39834677 12.50903351 -5.67853713 11.41883218 -9 10 C-8.33291016 11.37285156 -8.33291016 11.37285156 -7.65234375 12.7734375 C-6.80349609 14.55621094 -6.80349609 14.55621094 -5.9375 16.375 C-5.36902344 17.55835937 -4.80054687 18.74171875 -4.21484375 19.9609375 C-3.81394531 20.96382812 -3.41304688 21.96671875 -3 23 C-3.33 23.66 -3.66 24.32 -4 25 C-5.17713663 22.9219935 -6.34171974 20.83848217 -7.5 18.75 C-7.83386719 18.16347656 -8.16773437 17.57695313 -8.51171875 16.97265625 C-10.36076806 13.61417893 -11 11.93354216 -11 8 C-4.83423711 8.24179462 -4.83423711 8.24179462 -2.45703125 10.40234375 C-1.25706566 11.89790204 -0.123855 13.44643573 1 15 C1.33 15 1.66 15 2 15 C1.855625 14.33613281 1.71125 13.67226562 1.5625 12.98828125 C1.376875 12.10527344 1.19125 11.22226563 1 10.3125 C0.814375 9.44238281 0.62875 8.57226562 0.4375 7.67578125 C0.01027953 5.06287036 -0.07616201 2.64186962 0 0 Z " fill="#A99B91" transform="translate(83,95)"/>
<path d="M0 0 C-0.59344387 4.44664981 -2.39264814 7.89805279 -4.5625 11.75 C-8.07808943 18.13222091 -11.24203654 24.62151973 -14.20922852 31.27636719 C-17.70528056 38.94843737 -22.19546434 43.1213316 -29.31054688 47.51757812 C-33.40398606 50.1851596 -34.95976565 52.64215805 -37 57 C-40.125 57.75 -40.125 57.75 -43 58 C-43.33 58.66 -43.66 59.32 -44 60 C-44.66 60 -45.32 60 -46 60 C-47.84566532 63.98393611 -48.36022829 67.44376683 -48.625 71.8125 C-48.69976562 72.97394531 -48.77453125 74.13539063 -48.8515625 75.33203125 C-48.90054688 76.21246094 -48.94953125 77.09289062 -49 78 C-56.38929527 79.34350823 -64.72506783 80.18768843 -72 78 C-72.54170351 68.80608773 -71.86317103 60.47751422 -68 52 C-65.859375 49.62890625 -65.859375 49.62890625 -64 48 C-64.28746094 48.67546875 -64.57492188 49.3509375 -64.87109375 50.046875 C-66.15569831 53.40729384 -67.12284089 56.77719143 -68.0625 60.25 C-68.40410156 61.49265625 -68.74570313 62.7353125 -69.09765625 64.015625 C-70.06384584 68.28191671 -70.51693601 72.65242407 -71 77 C-64.73 76.67 -58.46 76.34 -52 76 C-51.855625 74.06125 -51.71125 72.1225 -51.5625 70.125 C-51.125 64.25 -51.125 64.25 -50 62 C-49.34 62 -48.68 62 -48 62 C-47.78214844 61.43796875 -47.56429687 60.8759375 -47.33984375 60.296875 C-45.55454596 57.2363645 -43.30449332 55.48923512 -40.5625 53.25 C-40.03188965 52.81244385 -39.5012793 52.3748877 -38.95458984 51.92407227 C-35.46053599 49.07524194 -31.84676206 46.48504358 -28.125 43.9375 C-22.18582487 39.6891016 -18.07906865 34.93089293 -16.125 27.8125 C-15.99405269 24.86618552 -15.93589593 21.94878703 -16 19 C-16 12.09147434 -12.70219004 6.01566937 -8 1 C-5.29120665 -0.35439668 -2.99066732 -0.06501451 0 0 Z " fill="#BFB6AD" transform="translate(228,103)"/>
<path d="M0 0 C0.66 0.33 1.32 0.66 2 1 C2 1.99 2 2.98 2 4 C1.01 4.66 0.02 5.32 -1 6 C-1.33 6.99 -1.66 7.98 -2 9 C-0.02 9 1.96 9 4 9 C4.33 8.01 4.66 7.02 5 6 C5.33 6.99 5.66 7.98 6 9 C6.99 9 7.98 9 9 9 C9 8.01 9 7.02 9 6 C9.66 5.67 10.32 5.34 11 5 C12.13350534 2.98330173 12.13350534 2.98330173 13 1 C16 2 16 2 17.82421875 5.16015625 C18.45553148 6.45600869 19.07625399 7.75706229 19.6875 9.0625 C20.00783203 9.72572266 20.32816406 10.38894531 20.65820312 11.07226562 C21.4478598 12.71050858 22.22512362 14.35471454 23 16 C21.68 16.33 20.36 16.66 19 17 C19 16.01 19 15.02 19 14 C18.34 14 17.68 14 17 14 C16.67 12.35 16.34 10.7 16 9 C14.35 9 12.7 9 11 9 C10.67 11.64 10.34 14.28 10 17 C7.27092082 17.30389967 4.54705508 17.5687825 1.8125 17.8125 C1.04357422 17.90208984 0.27464844 17.99167969 -0.51757812 18.08398438 C-4.94009394 18.44461871 -6.39776175 18.48887576 -9.98828125 15.57421875 C-10.65214844 14.72472656 -11.31601563 13.87523437 -12 13 C-12.33 12.67 -12.66 12.34 -13 12 C-13.49318163 7.72575917 -13.4524551 5.66454343 -11 2.0625 C-6.92969005 -0.73583809 -4.86254774 -0.47828338 0 0 Z " fill="#F8F7F4" transform="translate(202,191)"/>
<path d="M0 0 C5.39179083 0 9.79746681 0.16759469 15 1 C15.66 1 16.32 1 17 1 C19 1 21 1 23 1 C22.67 1.99 22.34 2.98 22 4 C21.44846759 9.87954986 21.44846759 9.87954986 24 15 C24.66 15.66 25.32 16.32 26 17 C22.6875 17.25 22.6875 17.25 19 17 C17.0625 15 17.0625 15 16 13 C15.3503125 13.7115625 15.3503125 13.7115625 14.6875 14.4375 C11.6664065 17.2348088 8.72769873 17.11334674 4.8125 17.0625 C3.224375 17.041875 1.63625 17.02125 0 17 C0 11.39 0 5.78 0 0 Z " fill="#D2C0AD" transform="translate(40,191)"/>
<path d="M0 0 C5.42579052 0.37854352 7.44024525 1.98386644 11 6 C11.928125 6.886875 12.85625 7.77375 13.8125 8.6875 C16 11 16 11 16 13 C16.66 13 17.32 13 18 13 C17.85892253 11.54119891 17.71197585 10.08296449 17.5625 8.625 C17.48128906 7.81289062 17.40007812 7.00078125 17.31640625 6.1640625 C17.10909886 3.95727195 17.10909886 3.95727195 16 2 C17.32 2.33 18.64 2.66 20 3 C19.67 8.28 19.34 13.56 19 19 C18.34 19 17.68 19 17 19 C15.80309402 17.3043832 14.60952962 15.60619723 13.44140625 13.890625 C11.3005871 11.08261289 8.79401148 9.14424137 6 7 C6 10.96 6 14.92 6 19 C3.33333333 19 0.66666667 19 -2 19 C-2.9075 19.01160156 -3.815 19.02320313 -4.75 19.03515625 C-6.35875 19.04869141 -6.35875 19.04869141 -8 19.0625 C-9.0725 19.07410156 -10.145 19.08570313 -11.25 19.09765625 C-14 19 -14 19 -16 18 C-16 17.34 -16 16.68 -16 16 C-16.66 16 -17.32 16 -18 16 C-18.4726477 7.80743982 -18.4726477 7.80743982 -16.5 4.4375 C-16.005 3.963125 -15.51 3.48875 -15 3 C-14.01 3.33 -13.02 3.66 -12 4 C-12.33 4.33 -12.66 4.66 -13 5 C-13.23363881 6.84891946 -13.41303635 8.70488031 -13.5625 10.5625 C-13.64628906 11.57441406 -13.73007813 12.58632812 -13.81640625 13.62890625 C-13.87699219 14.41136719 -13.93757812 15.19382813 -14 16 C-12.0509375 16.2784375 -12.0509375 16.2784375 -10.0625 16.5625 C-9.33160156 16.66691406 -8.60070312 16.77132812 -7.84765625 16.87890625 C-7.23792969 16.91886719 -6.62820312 16.95882812 -6 17 C-4.74050951 15.96593327 -4.74050951 15.96593327 -4.90234375 13.71484375 C-4.91394531 12.79832031 -4.92554688 11.88179687 -4.9375 10.9375 C-4.95103516 9.55884766 -4.95103516 9.55884766 -4.96484375 8.15234375 C-4.97644531 7.44207031 -4.98804688 6.73179687 -5 6 C-5.66 5.67 -6.32 5.34 -7 5 C-7 4.34 -7 3.68 -7 3 C-8.32 2.67 -9.64 2.34 -11 2 C-4.375 1.875 -4.375 1.875 -1 3 C-0.67 2.01 -0.34 1.02 0 0 Z " fill="#FAF6F1" transform="translate(160,189)"/>
<path d="M0 0 C1.17369141 0.12568359 1.17369141 0.12568359 2.37109375 0.25390625 C3.88896484 0.40666016 3.88896484 0.40666016 5.4375 0.5625 C6.44683594 0.66691406 7.45617187 0.77132812 8.49609375 0.87890625 C9.73552734 0.93884766 9.73552734 0.93884766 11 1 C11.33 0.67 11.66 0.34 12 0 C13.51928038 -0.07179964 15.04167482 -0.08392007 16.5625 -0.0625 C17.38878906 -0.05347656 18.21507813 -0.04445312 19.06640625 -0.03515625 C19.70449219 -0.02355469 20.34257813 -0.01195312 21 0 C21.391875 0.9075 21.78375 1.815 22.1875 2.75 C24.0787372 6.14118394 25.8554673 7.79032837 29 10 C28.505 5.05 28.505 5.05 28 0 C29.32 0.33 30.64 0.66 32 1 C32 5.62 32 10.24 32 15 C35.39914975 13.86695008 36.05254451 12.87481525 38 10 C37.67 11.98 37.34 13.96 37 16 C37.66 16.33 38.32 16.66 39 17 C35.7 17 32.4 17 29 17 C29 16.34 29 15.68 29 15 C28.1646875 14.690625 28.1646875 14.690625 27.3125 14.375 C24.02987629 12.42316968 22.29326754 10.05769006 20 7 C20 6.34 20 5.68 20 5 C19.01 5 18.02 5 17 5 C17.33 8.96 17.66 12.92 18 17 C16.35 17 14.7 17 13 17 C12.67 16.01 12.34 15.02 12 14 C10.35 14.66 8.7 15.32 7 16 C7.02320312 15.24074219 7.04640625 14.48148438 7.0703125 13.69921875 C7.08835937 12.70535156 7.10640625 11.71148437 7.125 10.6875 C7.14820312 9.70136719 7.17140625 8.71523437 7.1953125 7.69921875 C7.20682639 4.77593473 7.20682639 4.77593473 5 2 C2.43717258 1.27034634 2.43717258 1.27034634 0 1 C0 0.67 0 0.34 0 0 Z " fill="#F4EFE9" transform="translate(64,191)"/>
<path d="M0 0 C7.34812412 0.85443304 10.93192469 3.79494968 16 9 C16.66 9.33 17.32 9.66 18 10 C18 10.66 18 11.32 18 12 C18.92232422 12.29003906 18.92232422 12.29003906 19.86328125 12.5859375 C20.67152344 12.84632813 21.47976562 13.10671875 22.3125 13.375 C23.11300781 13.63023437 23.91351563 13.88546875 24.73828125 14.1484375 C27 15 27 15 30 17 C29.67 18.32 29.34 19.64 29 21 C28.4225 21.12375 27.845 21.2475 27.25 21.375 C24.96113478 21.90505439 24.96113478 21.90505439 23 23.1875 C21 24 21 24 19.0625 23.4375 C16.37910838 21.56725735 14.28854537 19.34055777 12 17 C10.65299719 15.82506941 9.29834775 14.65886664 7.9375 13.5 C0.15109077 6.69977114 0.15109077 6.69977114 -0.25 2.1875 C-0.1675 1.465625 -0.085 0.74375 0 0 Z " fill="#FAF8F6" transform="translate(88,122)"/>
<path d="M0 0 C7.0081627 1.75204068 9.64133179 6.07651266 13.59375 11.89453125 C15.24951034 15.55100201 14.84224008 17.16489422 14 21 C16.46301304 26.41862868 20.0087577 30.62293761 24 35 C23.01 37.475 23.01 37.475 22 40 C24.64 41.98 27.28 43.96 30 46 C29.01 46.495 29.01 46.495 28 47 C16.74513632 41.65194421 11.4268326 30.09953629 7 19 C6.48948246 17.34266771 6.0064152 15.67640024 5.5625 14 C4.27546057 9.50905391 2.40773564 5.98521762 0 2 C0 1.34 0 0.68 0 0 Z " fill="#E3DFD9" transform="translate(73,104)"/>
<path d="M0 0 C-0.63659739 5.01482845 -1.59055401 9.85733932 -2.875 14.75 C-3.03613281 15.40871094 -3.19726562 16.06742188 -3.36328125 16.74609375 C-4.31533375 20.38455794 -5.23418572 22.49111928 -8 25 C-8.13792969 25.66644531 -8.27585938 26.33289063 -8.41796875 27.01953125 C-9 29 -9 29 -10.92578125 30.44921875 C-11.71339844 30.85785156 -12.50101563 31.26648438 -13.3125 31.6875 C-14.09238281 32.10386719 -14.87226563 32.52023438 -15.67578125 32.94921875 C-17.79083461 33.90543615 -19.73413165 34.52816014 -22 35 C-21.67 34.34 -21.34 33.68 -21 33 C-20.34 33 -19.68 33 -19 33 C-18.92523438 32.41734375 -18.85046875 31.8346875 -18.7734375 31.234375 C-17.39862272 22.66200049 -14.27526367 14.16768772 -8 8 C-7.690625 6.989375 -7.38125 5.97875 -7.0625 4.9375 C-6 2 -6 2 -4 0.625 C-2 0 -2 0 0 0 Z " fill="#A79B92" transform="translate(206,102)"/>
<path d="M0 0 C3.5625 1.8125 3.5625 1.8125 6 4 C6.78375 4.5775 7.5675 5.155 8.375 5.75 C8.91125 6.1625 9.4475 6.575 10 7 C10.7425 6.21625 11.485 5.4325 12.25 4.625 C17.50467485 -0.39082599 21.6821089 -0.43604918 28.796875 -0.31640625 C34.35556016 0.23268338 37.16506157 2.36343329 41.3125 6.0625 C44.42553052 11.48147905 45.25291254 17.51302671 44.625 23.6875 C44.315625 24.8321875 44.315625 24.8321875 44 26 C43.67 26 43.34 26 43 26 C42.94392578 24.80503906 42.94392578 24.80503906 42.88671875 23.5859375 C42.52066068 17.68594268 42.12544351 13.16377623 39 8 C39 7.34 39 6.68 39 6 C33.16034812 2.85557206 27.62836612 1.14986887 21 2 C16.24992726 3.76963494 13.49694379 6.40591888 10 10 C8 10 8 10 5.375 7.625 C3 5 3 5 3 3 C-4.38823031 1.15294242 -10.28562209 1.32609511 -17 5 C-20.89489513 8.38686533 -22.68857979 10.54048815 -23.34375 15.71484375 C-23.83053963 25.75487997 -21.09977079 32.18487675 -14.48925781 39.72265625 C-9.91844954 44.68322337 -5.31848014 49.4814633 0.33984375 53.1875 C3 55 3 55 4 58 C2.35 57.34 0.7 56.68 -1 56 C-1 55.34 -1 54.68 -1 54 C-1.58523437 53.72800781 -2.17046875 53.45601562 -2.7734375 53.17578125 C-9.26517921 49.74768606 -13.89002636 44.15615987 -18.3125 38.4375 C-18.94309326 37.62478638 -18.94309326 37.62478638 -19.58642578 36.7956543 C-25.36566923 29.12369119 -26.90592647 23.48032915 -26 14 C-24.78324213 8.04775202 -20.88240078 4.30671689 -16 1 C-10.81381682 -0.72872773 -5.40813733 -0.49285981 0 0 Z " fill="#ACA299" transform="translate(141,78)"/>
<path d="M0 0 C3.96 0 7.92 0 12 0 C12.22786458 2.21354167 12.45572917 4.42708333 12.68359375 6.640625 C12.97646296 8.8244892 13.45789357 10.86801841 14 13 C14 13.66 14 14.32 14 15 C14.99 15 15.98 15 17 15 C17.66 13.02 18.32 11.04 19 9 C20.65 8.67 22.3 8.34 24 8 C23.67 5.69 23.34 3.38 23 1 C23.66 1 24.32 1 25 1 C25.96189997 2.72718516 26.91936508 4.45684058 27.875 6.1875 C28.67550781 7.63189453 28.67550781 7.63189453 29.4921875 9.10546875 C30.8423678 11.69739518 31.97098329 14.26761098 33 17 C31.35 17 29.7 17 28 17 C27.34 14.36 26.68 11.72 26 9 C24.68 9.33 23.36 9.66 22 10 C21.67 12.31 21.34 14.62 21 17 C14.07 17 7.14 17 0 17 C1.52510352 13.18724121 3.00757127 10.13982945 5.125 6.6875 C5.66382813 5.80449219 6.20265625 4.92148438 6.7578125 4.01171875 C7.16773438 3.34785156 7.57765625 2.68398437 8 2 C5.03 1.505 5.03 1.505 2 1 C2 1.66 2 2.32 2 3 C1.34 3 0.68 3 0 3 C0 2.01 0 1.02 0 0 Z " fill="#F6F2ED" transform="translate(228,191)"/>
<path d="M0 0 C2.8125 0.5625 2.8125 0.5625 6 2 C7.5 5.0625 7.5 5.0625 8.15234375 6.96484375 C9.14282568 9.34291326 10.49992645 11.08047606 12.0625 13.125 C15.89576959 18.61332892 16.41367092 24.45939799 17 31 C14.32423308 29.99382318 13.2214892 29.45785454 11.953125 26.8359375 C11.72109375 26.02382812 11.4890625 25.21171875 11.25 24.375 C10.88648437 23.14910156 10.88648437 23.14910156 10.515625 21.8984375 C10.34546875 21.27195312 10.1753125 20.64546875 10 20 C10.33 22.31 10.66 24.62 11 27 C5.23782797 23.0494804 3.70329089 19.63442608 2.125 12.9375 C1.80789062 11.73383789 1.80789062 11.73383789 1.484375 10.50585938 C0.54021294 6.81197857 0 3.85842159 0 0 Z " fill="#F5EFEA" transform="translate(93,102)"/>
<path d="M0 0 C3 1 3 1 4.82421875 4.16015625 C5.45553148 5.45600869 6.07625399 6.75706229 6.6875 8.0625 C7.00783203 8.72572266 7.32816406 9.38894531 7.65820312 10.07226562 C8.4478598 11.71050858 9.22512362 13.35471454 10 15 C8.68 15.33 7.36 15.66 6 16 C6 15.01 6 14.02 6 13 C5.34 13 4.68 13 4 13 C3.67 11.35 3.34 9.7 3 8 C1.35 8 -0.3 8 -2 8 C-2.33 10.64 -2.66 13.28 -3 16 C-6.63 16 -10.26 16 -14 16 C-14 13.33333333 -14 10.66666667 -14 8 C-12.35 8 -10.7 8 -9 8 C-8.67 7.01 -8.34 6.02 -8 5 C-7.67 5.99 -7.34 6.98 -7 8 C-6.01 8 -5.02 8 -4 8 C-4 7.01 -4 6.02 -4 5 C-3.34 4.67 -2.68 4.34 -2 4 C-0.86649466 1.98330173 -0.86649466 1.98330173 0 0 Z " fill="#F5F0E9" transform="translate(215,192)"/>
<path d="M0 0 C0.33 0.66 0.66 1.32 1 2 C1.804375 2.309375 2.60875 2.61875 3.4375 2.9375 C6 4 6 4 8 7 C8.23046875 9.15625 8.23046875 9.15625 8.1875 11.5 C8.17783203 12.66015625 8.17783203 12.66015625 8.16796875 13.84375 C8 16 8 16 7 19 C4.69 19.33 2.38 19.66 0 20 C-3.1523629 13.6952742 -4.10259287 7.93855647 -2 1 C-1.34 0.67 -0.68 0.34 0 0 Z " fill="#F7F5F2" transform="translate(64,189)"/>
<path d="M0 0 C7.53518379 3.48566325 15.22800226 9.45600452 19 17 C19.13860991 21.00305407 19.04262206 24.99352624 19 29 C25.6 29 32.2 29 39 29 C38.05490277 20.41536679 37.09215396 13.07650529 33.70703125 5.07421875 C33.35705078 4.04748047 33.35705078 4.04748047 33 3 C33.33 2.34 33.66 1.68 34 1 C39.88537458 10.22042018 40.69501438 19.13837993 40 30 C38.45461688 31.54538312 36.99828899 31.12967467 34.8515625 31.1328125 C34.01109375 31.13410156 33.170625 31.13539063 32.3046875 31.13671875 C30.97824219 31.13091797 30.97824219 31.13091797 29.625 31.125 C28.31015625 31.13080078 28.31015625 31.13080078 26.96875 31.13671875 C26.12570313 31.13542969 25.28265625 31.13414062 24.4140625 31.1328125 C23.6401416 31.13168457 22.8662207 31.13055664 22.06884766 31.12939453 C20 31 20 31 17 30 C16.98582031 29.05898437 16.97164062 28.11796875 16.95703125 27.1484375 C16.96426558 19.19614585 16.96426558 19.19614585 13.6875 12.25 C11.45144559 10.37795445 9.64840664 9.13503142 7 8 C6.67 7.34 6.34 6.68 6 6 C3.47266765 5.34444881 3.47266765 5.34444881 1 5 C0.67 3.35 0.34 1.7 0 0 Z " fill="#ADA197" transform="translate(103,151)"/>
<path d="M0 0 C-0.44843895 3.06403326 -0.91050654 6.12586279 -1.375 9.1875 C-1.50132812 10.05181641 -1.62765625 10.91613281 -1.7578125 11.80664062 C-3.21445655 21.31124305 -3.21445655 21.31124305 -5 24 C-8.625 25.3125 -8.625 25.3125 -12 26 C-9.10933941 10.25512528 -9.10933941 10.25512528 -6 3 C-5.34 3 -4.68 3 -4 3 C-4 2.34 -4 1.68 -4 1 C-2 0 -2 0 0 0 Z " fill="#F8F6F2" transform="translate(215,96)"/>
<path d="M0 0 C3.04053289 0.90394221 4.68440641 1.60127803 6.67578125 4.1171875 C8.32865479 7.71547858 9.2873972 11.27942463 10.1875 15.125 C10.36474609 15.84042969 10.54199219 16.55585937 10.72460938 17.29296875 C11.44377029 20.26401963 12 22.93247617 12 26 C9.69 25.34 7.38 24.68 5 24 C2.85881676 16.09409267 1.4658201 8.05223842 0 0 Z " fill="#F8F7F5" transform="translate(84,96)"/>
<path d="M0 0 C2.31 0 4.62 0 7 0 C6.67 1.32 6.34 2.64 6 4 C6.99 4.33 7.98 4.66 9 5 C9.05395478 6.62463842 9.09277195 8.24978541 9.125 9.875 C9.14820313 10.77992188 9.17140625 11.68484375 9.1953125 12.6171875 C9 15 9 15 7 17 C3.26703674 17.38286803 2.22373677 17.14915785 -1 15 C-1.328125 12.5390625 -1.328125 12.5390625 -1.25 9.625 C-1.23453125 8.66851562 -1.2190625 7.71203125 -1.203125 6.7265625 C-1.02600523 4.34907017 -0.66988593 2.27977308 0 0 Z " fill="#F9F8F5" transform="translate(147,190)"/>
<path d="M0 0 C1.32 0.33 2.64 0.66 4 1 C4 5.62 4 10.24 4 15 C7.39914975 13.86695008 8.05254451 12.87481525 10 10 C9.67 11.98 9.34 13.96 9 16 C9.66 16.33 10.32 16.66 11 17 C7.7 17 4.4 17 1 17 C1 16.34 1 15.68 1 15 C0.443125 14.79375 -0.11375 14.5875 -0.6875 14.375 C-3.97012371 12.42316968 -5.70673246 10.05769006 -8 7 C-8 6.34 -8 5.68 -8 5 C-8.99 5 -9.98 5 -11 5 C-10.67 8.96 -10.34 12.92 -10 17 C-10.99 16.67 -11.98 16.34 -13 16 C-12.67 11.05 -12.34 6.1 -12 1 C-10.68 1 -9.36 1 -8 1 C-6.6072711 2.61736259 -5.28062485 4.2925002 -4 6 C-2.36643049 7.37368345 -0.7074998 8.71937515 1 10 C0.67 6.7 0.34 3.4 0 0 Z " fill="#BD9F85" transform="translate(92,191)"/>
<path d="M0 0 C3.25 -0.3125 3.25 -0.3125 7 0 C10.18533648 2.69528471 10.90100875 4.38405445 11.5625 8.5 C11 12 11 12 9.0625 14.9375 C4.99951847 17.67379368 1.77235191 17.65631559 -3 17 C-3.66 16.67 -4.32 16.34 -5 16 C-5 15.34 -5 14.68 -5 14 C-5.66 14 -6.32 14 -7 14 C-7.4726477 5.80743982 -7.4726477 5.80743982 -5.5 2.4375 C-4.7575 1.7259375 -4.7575 1.7259375 -4 1 C-3.01 1.33 -2.02 1.66 -1 2 C-1.33 2.33 -1.66 2.66 -2 3 C-2.23363881 4.84891946 -2.41303635 6.70488031 -2.5625 8.5625 C-2.64628906 9.57441406 -2.73007813 10.58632812 -2.81640625 11.62890625 C-2.87699219 12.41136719 -2.93757812 13.19382813 -3 14 C-1.700625 14.185625 -0.40125 14.37125 0.9375 14.5625 C1.66839844 14.66691406 2.39929688 14.77132812 3.15234375 14.87890625 C4.06693359 14.93884766 4.06693359 14.93884766 5 15 C6.25949049 13.96593327 6.25949049 13.96593327 6.09765625 11.71484375 C6.08605469 10.79832031 6.07445312 9.88179687 6.0625 8.9375 C6.04896484 7.55884766 6.04896484 7.55884766 6.03515625 6.15234375 C6.02355469 5.44207031 6.01195312 4.73179687 6 4 C5.34 3.67 4.68 3.34 4 3 C4 2.34 4 1.68 4 1 C2.68 0.67 1.36 0.34 0 0 Z " fill="#C2A894" transform="translate(149,191)"/>
<path d="M0 0 C-1.55652055 5.3537465 -3.9817509 10.00150947 -6.625 14.875 C-7.04523438 15.65875 -7.46546875 16.4425 -7.8984375 17.25 C-8.9281022 19.16892057 -9.96347567 21.08477603 -11 23 C-13 22 -13 22 -14.625 19.1875 C-15.47468063 16.06768029 -14.97007739 14.93881261 -13.51953125 11.97265625 C-5.7844697 0 -5.7844697 0 0 0 Z " fill="#F6F4F1" transform="translate(226,104)"/>
<path d="M0 0 C6.90897496 1.72724374 9.8671154 5.93655775 13.58984375 11.83984375 C15.39857799 15.89321216 15.27150246 18.21602272 13.9140625 22.35546875 C13 24 13 24 11 25 C11 23.68 11 22.36 11 21 C9.63361472 19.44012496 9.63361472 19.44012496 8 18 C6.92504883 16.22241211 6.92504883 16.22241211 5.95703125 14.27734375 C5.60576172 13.57416016 5.25449219 12.87097656 4.89257812 12.14648438 C4.53615234 11.41751953 4.17972656 10.68855469 3.8125 9.9375 C3.44447266 9.20466797 3.07644531 8.47183594 2.69726562 7.71679688 C0 2.26721939 0 2.26721939 0 0 Z " fill="#F6F4F0" transform="translate(73,104)"/>
<path d="M0 0 C0.33 0.99 0.66 1.98 1 3 C1.66 3 2.32 3 3 3 C3 2.34 3 1.68 3 1 C5.31 1 7.62 1 10 1 C7.30680176 6.58507504 4.59526039 11.9400039 1 17 C-0.32 16.67 -1.64 16.34 -3 16 C-4.0789673 12.77748432 -3.94905076 11.10969719 -2.625 8 C-1.51684498 5.34871323 -0.63860635 2.80485926 0 0 Z " fill="#F8F6F2" transform="translate(227,191)"/>
<path d="M0 0 C5 0 5 0 6.7890625 1.18359375 C8.3874902 3.5812353 8.40031352 5.19785376 8.375 8.0625 C8.38273437 8.94035156 8.39046875 9.81820312 8.3984375 10.72265625 C8.26695313 11.47417969 8.13546875 12.22570312 8 13 C5 15 5 15 0 15 C0 10.05 0 5.1 0 0 Z " fill="#FBFAF6" transform="translate(43,192)"/>
<path d="M0 0 C0.66 0.33 1.32 0.66 2 1 C2 2.32 2 3.64 2 5 C3.65 5.33 5.3 5.66 7 6 C7 6.66 7 7.32 7 8 C7.66 8.33 8.32 8.66 9 9 C7.35 9.66 5.7 10.32 4 11 C4 11.66 4 12.32 4 13 C3.34 13 2.68 13 2 13 C1.34 14.32 0.68 15.64 0 17 C-0.4125 16.21625 -0.825 15.4325 -1.25 14.625 C-3.0392777 11.94108344 -4.04988139 11.11901051 -7 10 C-7 9.34 -7 8.68 -7 8 C-6.21625 7.566875 -5.4325 7.13375 -4.625 6.6875 C-1.58313785 4.73201719 -1.01018099 3.39788151 0 0 Z " fill="#F6F2ED" transform="translate(135,91)"/>
<path d="M0 0 C2.625 -0.5 2.625 -0.5 6 0 C7.83297532 1.92333326 9.24675408 3.93255259 10.703125 6.15234375 C11.87759734 8.13678238 11.87759734 8.13678238 14 9 C14 9.66 14 10.32 14 11 C14.66 11 15.32 11 16 11 C15.85892253 9.54119891 15.71197585 8.08296449 15.5625 6.625 C15.48128906 5.81289062 15.40007812 5.00078125 15.31640625 4.1640625 C15.10909886 1.95727195 15.10909886 1.95727195 14 0 C15.32 0.33 16.64 0.66 18 1 C17.67 6.28 17.34 11.56 17 17 C16.34 17 15.68 17 15 17 C13.80309402 15.3043832 12.60952962 13.60619723 11.44140625 11.890625 C9.3005871 9.08261289 6.79401148 7.14424137 4 5 C4 8.96 4 12.92 4 17 C3.01 16.67 2.02 16.34 1 16 C1.66 16 2.32 16 3 16 C2.88628503 13.70774565 2.75869036 11.41617612 2.625 9.125 C2.55539063 7.84882813 2.48578125 6.57265625 2.4140625 5.2578125 C2.32758894 1.91938301 2.32758894 1.91938301 0 0 Z " fill="#BFA895" transform="translate(162,191)"/>
<path d="M0 0 C0 3.28292448 -0.73807968 5.24613462 -1.875 8.3125 C-4.23378551 15.14628639 -5.13992537 21.83271145 -6 29 C0.27 28.67 6.54 28.34 13 28 C13.66 24.37 14.32 20.74 15 17 C15.33 17 15.66 17 16 17 C16 21.29 16 25.58 16 30 C8.61070473 31.34350823 0.27493217 32.18768843 -7 30 C-7.61681383 19.53129857 -7.02273767 8.39106479 0 0 Z " fill="#ABA29A" transform="translate(163,151)"/>
<path d="M0 0 C1.90625 0.7734375 1.90625 0.7734375 4 2 C7.29735267 9.96860228 8.97663356 18.62922006 11 27 C5.23782797 23.0494804 3.70329089 19.63442608 2.125 12.9375 C1.80789062 11.73383789 1.80789062 11.73383789 1.484375 10.50585938 C0.54021294 6.81197857 0 3.85842159 0 0 Z " fill="#F6F3EE" transform="translate(93,102)"/>
<path d="M0 0 C5.28 0 10.56 0 16 0 C16 1.32 16 2.64 16 4 C15.01 3.67 14.02 3.34 13 3 C13 2.34 13 1.68 13 1 C12.01 1 11.02 1 10 1 C10 6.28 10 11.56 10 17 C8.68 17 7.36 17 6 17 C6 11.72 6 6.44 6 1 C3.00667261 1.9977758 2.05233685 2.7522025 0 5 C0 3.35 0 1.7 0 0 Z " fill="#C6AC97" transform="translate(115,191)"/>
<path d="M0 0 C0.66 0 1.32 0 2 0 C1.35385016 4.95168291 0.48578173 9.76355416 -0.6875 14.625 C-0.98011719 15.89601563 -1.27273437 17.16703125 -1.57421875 18.4765625 C-3.3565032 22.88100242 -5.18846162 24.27821747 -9 27 C-3.26213592 3.26213592 -3.26213592 3.26213592 0 0 Z " fill="#F9F7F1" transform="translate(204,102)"/>
<path d="M0 0 C1 3 1 3 0.1015625 4.91015625 C-6.50854211 14.54552037 -14.51532283 24.07874909 -24 31 C-24.66 31 -25.32 31 -26 31 C-26 30.34 -26 29.68 -26 29 C-20.52380952 24 -20.52380952 24 -18 24 C-17.67 23.01 -17.34 22.02 -17 21 C-16.34 21 -15.68 21 -15 21 C-14.979375 19.906875 -14.95875 18.81375 -14.9375 17.6875 C-14.628125 16.470625 -14.31875 15.25375 -14 14 C-10.625 12.375 -10.625 12.375 -7 11 C-5.19203897 8.43389334 -5.19203897 8.43389334 -4 6 C-3.34 6 -2.68 6 -2 6 C-1.34 4.02 -0.68 2.04 0 0 Z " fill="#F6F0EA" transform="translate(183,104)"/>
<path d="M0 0 C0.21761603 4.35232068 -0.41750832 7.84691343 -1.5703125 11.984375 C-2.1398471 14.2581335 -2.1398471 14.2581335 -1.875 17.6875 C-2.02942037 21.77963988 -3.37712542 22.98112279 -6 26 C-3.26213592 5.52427184 -3.26213592 5.52427184 -1 1 C-2.32 1.33 -3.64 1.66 -5 2 C-5 2.66 -5 3.32 -5 4 C-5.99 4.495 -5.99 4.495 -7 5 C-7.74666179 6.82549733 -7.74666179 6.82549733 -8.2890625 9.03515625 C-8.50820312 9.84404297 -8.72734375 10.65292969 -8.953125 11.48632812 C-9.17484375 12.33646484 -9.3965625 13.18660156 -9.625 14.0625 C-9.85445312 14.91650391 -10.08390625 15.77050781 -10.3203125 16.65039062 C-10.88739162 18.76512317 -11.44692622 20.88156939 -12 23 C-12.33 23 -12.66 23 -13 23 C-12.52013969 17.43109483 -11.70084819 12.32932432 -10 7 C-11.98 7.99 -11.98 7.99 -14 9 C-13.1875 7.0625 -13.1875 7.0625 -12 5 C-11.01 4.67 -10.02 4.34 -9 4 C-7.97980427 3.0206121 -6.97850195 2.02104551 -6 1 C-4 0 -4 0 0 0 Z " fill="#AD9E96" transform="translate(216,95)"/>
<path d="M0 0 C3 1 3 1 4.82421875 4.16015625 C5.45553148 5.45600869 6.07625399 6.75706229 6.6875 8.0625 C7.00783203 8.72572266 7.32816406 9.38894531 7.65820312 10.07226562 C8.4478598 11.71050858 9.22512362 13.35471454 10 15 C8.68 15.33 7.36 15.66 6 16 C6 15.01 6 14.02 6 13 C5.34 13 4.68 13 4 13 C3.67 11.35 3.34 9.7 3 8 C1.35 8 -0.3 8 -2 8 C-2.33 10.64 -2.66 13.28 -3 16 C-4.32 15.67 -5.64 15.34 -7 15 C-5.68 12.36 -4.36 9.72 -3 7 C-1.68 7 -0.36 7 1 7 C0.67 4.69 0.34 2.38 0 0 Z " fill="#BDA48F" transform="translate(215,192)"/>
<path d="M0 0 C3.96 0 7.92 0 12 0 C10.98787713 4.04849147 9.56619189 6.68927901 7.4375 10.25 C6.79683594 11.32765625 6.15617188 12.4053125 5.49609375 13.515625 C4.75552734 14.74539062 4.75552734 14.74539062 4 16 C8.455 15.505 8.455 15.505 13 15 C13 15.66 13 16.32 13 17 C8.71 17 4.42 17 0 17 C1.52510352 13.18724121 3.00757127 10.13982945 5.125 6.6875 C5.66382813 5.80449219 6.20265625 4.92148438 6.7578125 4.01171875 C7.16773438 3.34785156 7.57765625 2.68398437 8 2 C5.03 1.505 5.03 1.505 2 1 C2 1.66 2 2.32 2 3 C1.34 3 0.68 3 0 3 C0 2.01 0 1.02 0 0 Z " fill="#BCA28D" transform="translate(228,191)"/>
<path d="M0 0 C1.65 0 3.3 0 5 0 C5 5.61 5 11.22 5 17 C3.68 17 2.36 17 1 17 C0.67 11.39 0.34 5.78 0 0 Z " fill="#C3AA96" transform="translate(133,191)"/>
<path d="M0 0 C-0.59715372 4.77722976 -2.62670199 8.36919294 -4.9375 12.5 C-7.20609833 16.59889859 -9.37969904 20.58870942 -11 25 C-11.93821806 22.46757403 -12.10396504 21.29596117 -11.19555664 18.70996094 C-10.55928345 17.4845459 -10.55928345 17.4845459 -9.91015625 16.234375 C-9.45576172 15.34492187 -9.00136719 14.45546875 -8.53320312 13.5390625 C-8.04787109 12.61867188 -7.56253906 11.69828125 -7.0625 10.75 C-6.58103516 9.81414062 -6.09957031 8.87828125 -5.60351562 7.9140625 C-4.41293097 5.60362099 -3.21152028 3.299513 -2 1 C-2.78375 1.495 -3.5675 1.99 -4.375 2.5 C-7 4 -7 4 -9 4 C-9.268125 4.598125 -9.53625 5.19625 -9.8125 5.8125 C-10.98493467 7.97224808 -12.19369282 9.35790256 -14 11 C-11.31912447 3.18077969 -8.24100366 -0.17915225 0 0 Z " fill="#AEA39B" transform="translate(228,103)"/>
<path d="M0 0 C0.66 0.33 1.32 0.66 2 1 C1.67 1.99 1.34 2.98 1 4 C0.34 3.34 -0.32 2.68 -1 2 C-4 1.58333333 -4 1.58333333 -7 2 C-9.35620437 5.53430656 -9.48991613 6.83571287 -9 11 C-7.11586085 14.32808239 -7.11586085 14.32808239 -5 17 C-7.93167219 16.68306247 -9.58982661 16.36774166 -11.8125 14.375 C-13.50860361 10.98279278 -13.52560443 8.74493155 -13 5 C-9.25043181 -0.50717828 -6.18827269 -0.60868256 0 0 Z " fill="#B79D86" transform="translate(202,191)"/>
<path d="M0 0 C7.34943362 3.399738 15.85086223 9.47364573 18.875 17.25 C19.07011838 21.54260427 18.53714378 25.74416853 18 30 C17.67 30 17.34 30 17 30 C16.98582031 29.05898437 16.97164062 28.11796875 16.95703125 27.1484375 C16.96426558 19.19614585 16.96426558 19.19614585 13.6875 12.25 C11.45144559 10.37795445 9.64840664 9.13503142 7 8 C6.67 7.34 6.34 6.68 6 6 C3.47266765 5.34444881 3.47266765 5.34444881 1 5 C0.67 3.35 0.34 1.7 0 0 Z " fill="#C0B6AD" transform="translate(103,151)"/>
<path d="M0 0 C0.66 0 1.32 0 2 0 C2.96189997 1.72718516 3.91936508 3.45684058 4.875 5.1875 C5.67550781 6.63189453 5.67550781 6.63189453 6.4921875 8.10546875 C7.8423678 10.69739518 8.97098329 13.26761098 10 16 C8.35 16 6.7 16 5 16 C4.34 13.36 3.68 10.72 3 8 C1.02 8 -0.96 8 -3 8 C-1.68 7.67 -0.36 7.34 1 7 C0.67 4.69 0.34 2.38 0 0 Z " fill="#B59881" transform="translate(251,192)"/>
<path d="M0 0 C2.30062735 2.11054703 3.712578 4.06585058 5.0625 6.875 C5.39894531 7.57367188 5.73539063 8.27234375 6.08203125 8.9921875 C7.13668879 11.29897038 8.10936902 13.62498404 9 16 C7.35 16 5.7 16 4 16 C3.34 13.36 2.68 10.72 2 8 C0.35 8 -1.3 8 -3 8 C-2.67 7.34 -2.34 6.68 -2 6 C-1.01 6.33 -0.02 6.66 1 7 C0.34 5.02 -0.32 3.04 -1 1 C-0.67 0.67 -0.34 0.34 0 0 Z " fill="#BA9C84" transform="translate(106,192)"/>
<path d="M0 0 C2.64 0 5.28 0 8 0 C8 0.33 8 0.66 8 1 C6.35 1 4.7 1 3 1 C3 6.28 3 11.56 3 17 C2.01 17 1.02 17 0 17 C0 11.39 0 5.78 0 0 Z " fill="#B59A84" transform="translate(40,191)"/>
<path d="M0 0 C0.66 0 1.32 0 2 0 C2.66 0.99 3.32 1.98 4 3 C4.99 3.33 5.98 3.66 7 4 C7 4.66 7 5.32 7 6 C6.360625 6.28875 5.72125 6.5775 5.0625 6.875 C2.84793921 7.82823451 2.84793921 7.82823451 2 10 C0 10 0 10 -1.5 8.5625 C-1.995 8.046875 -2.49 7.53125 -3 7 C-3.66 6.67 -4.32 6.34 -5 6 C-5 5.34 -5 4.68 -5 4 C-4.360625 3.71125 -3.72125 3.4225 -3.0625 3.125 C-0.84793921 2.17176549 -0.84793921 2.17176549 0 0 Z " fill="#BCAFA5" transform="translate(157,112)"/>
<path d="M0 0 C1.98 0.495 1.98 0.495 4 1 C4 5.62 4 10.24 4 15 C7.39914975 13.86695008 8.05254451 12.87481525 10 10 C9.67 11.98 9.34 13.96 9 16 C9.66 16.33 10.32 16.66 11 17 C8.03 17 5.06 17 2 17 C1.814375 15.824375 1.814375 15.824375 1.625 14.625 C1.20882007 11.85942178 1.20882007 11.85942178 -1 10 C-0.34 10 0.32 10 1 10 C0.67 6.7 0.34 3.4 0 0 Z " fill="#DACDC1" transform="translate(92,191)"/>
<path d="M0 0 C1.3364285 4.00928551 0.10374067 6.71787638 -1.1875 10.5625 C-1.39697266 11.24763672 -1.60644531 11.93277344 -1.82226562 12.63867188 C-3.47943947 17.64953286 -3.47943947 17.64953286 -6.17578125 19.46484375 C-7.07876953 19.72974609 -7.07876953 19.72974609 -8 20 C-7.34715354 16.0242384 -6.12819283 12.58248629 -4.5625 8.875 C-4.13066406 7.84117188 -3.69882813 6.80734375 -3.25390625 5.7421875 C-2 3 -2 3 0 0 Z " fill="#F5EEE6" transform="translate(197,113)"/>
<path d="M0 0 C-0.33 0.99 -0.66 1.98 -1 3 C-1.55153241 8.87954986 -1.55153241 8.87954986 1 14 C1.66 14.66 2.32 15.32 3 16 C-2.54425612 15.51789077 -2.54425612 15.51789077 -4.375 13.4375 C-5.31542253 9.76985212 -5.30155019 6.7995324 -5 3 C-3.38450752 0.65019276 -2.86103007 0 0 0 Z " fill="#B89C83" transform="translate(63,192)"/>
<path d="M0 0 C0.66 0 1.32 0 2 0 C2 0.66 2 1.32 2 2 C2.763125 2.20625 3.52625 2.4125 4.3125 2.625 C12.21619864 5.57214187 19.13636349 8.95611264 24 16 C23.67 16.66 23.34 17.32 23 18 C22.175 17.01 21.35 16.02 20.5 15 C14.86027547 9.26647548 7.2005499 6.32798525 0 3 C0 2.01 0 1.02 0 0 Z " fill="#B1A79F" transform="translate(112,134)"/>
<path d="M0 0 C0.66 0 1.32 0 2 0 C2.37125 0.969375 2.7425 1.93875 3.125 2.9375 C4.44702263 6.0900155 6.12594794 8.66958177 8.125 11.4375 C11.09551095 15.71680042 11.81198884 18.82969313 12 24 C10.10331936 21.15497903 8.76736522 18.42700115 7.375 15.3125 C6.92898437 14.31863281 6.48296875 13.32476562 6.0234375 12.30078125 C5.68570313 11.54152344 5.34796875 10.78226563 5 10 C5 11.98 5 13.96 5 16 C2.79334596 12.69001895 2.21737905 10.17978564 1.375 6.3125 C1.11460938 5.13300781 0.85421875 3.95351562 0.5859375 2.73828125 C0.39257812 1.83464844 0.19921875 0.93101563 0 0 Z " fill="#A99C95" transform="translate(97,104)"/>
<path d="M0 0 C0.66 0 1.32 0 2 0 C1.745504 1.48206495 1.47088238 2.96068615 1.1875 4.4375 C1.03667969 5.26121094 0.88585937 6.08492188 0.73046875 6.93359375 C0.36888672 7.95646484 0.36888672 7.95646484 0 9 C-0.99 9.33 -1.98 9.66 -3 10 C-4.13471659 11.585046 -4.13471659 11.585046 -5 13.5625 C-5.50273437 14.63177734 -5.50273437 14.63177734 -6.015625 15.72265625 C-7.47818786 19.10628381 -8.76019277 22.52853975 -10 26 C-10.33 26 -10.66 26 -11 26 C-10.49794041 18.30175288 -7.4783141 11.44796333 -2 6 C-0.79950593 2.89992799 -0.79950593 2.89992799 0 0 Z " fill="#B1A297" transform="translate(200,104)"/>
<path d="M0 0 C3.61305558 -0.33609819 5.62603831 -0.19511045 8.875 1.5 C11.46412525 4.54602971 11.66669977 6.19835238 11.44140625 10.09375 C10.78459891 12.93022771 9.27941255 14.29044059 7 16 C7.02320312 15.24074219 7.04640625 14.48148438 7.0703125 13.69921875 C7.08835937 12.70535156 7.10640625 11.71148437 7.125 10.6875 C7.14820312 9.70136719 7.17140625 8.71523437 7.1953125 7.69921875 C7.20682639 4.77593473 7.20682639 4.77593473 5 2 C2.43717258 1.27034634 2.43717258 1.27034634 0 1 C0 0.67 0 0.34 0 0 Z " fill="#BA9D86" transform="translate(64,191)"/>
<path d="M0 0 C0.58523437 0.22042969 1.17046875 0.44085938 1.7734375 0.66796875 C1.1484375 2.60546875 1.1484375 2.60546875 -0.2265625 4.66796875 C-3.2890625 5.29296875 -3.2890625 5.29296875 -6.2265625 5.66796875 C-6.5565625 6.32796875 -6.8865625 6.98796875 -7.2265625 7.66796875 C-7.8865625 7.66796875 -8.5465625 7.66796875 -9.2265625 7.66796875 C-9.8865625 9.31796875 -10.5465625 10.96796875 -11.2265625 12.66796875 C-11.8865625 12.66796875 -12.5465625 12.66796875 -13.2265625 12.66796875 C-13.5565625 13.65796875 -13.8865625 14.64796875 -14.2265625 15.66796875 C-13.8965625 13.68796875 -13.5665625 11.70796875 -13.2265625 9.66796875 C-12.5665625 9.66796875 -11.9065625 9.66796875 -11.2265625 9.66796875 C-10.83597656 8.78044922 -10.83597656 8.78044922 -10.4375 7.875 C-9.1495972 5.52769329 -7.85432072 4.11772107 -5.8515625 2.35546875 C-5.26632813 1.82308594 -4.68109375 1.29070312 -4.078125 0.7421875 C-2.2265625 -0.33203125 -2.2265625 -0.33203125 0 0 Z " fill="#B9ACA2" transform="translate(191.2265625,155.33203125)"/>
<path d="M0 0 C3.04172663 1.32588084 4.74056888 2.62591936 6.75 5.25 C9.01973011 8.04084161 11.30303756 10.06426177 14.25 12.125 C17.43914216 14.38904749 19.07197002 16.05587257 20 20 C19.34 20 18.68 20 18 20 C16.84038571 18.60164159 15.68543713 17.19914431 14.5546875 15.77734375 C12.83736924 13.8140779 10.9895398 12.18547806 9 10.5 C5.56602402 7.57331592 2.73403646 4.58842285 0 1 C0 0.67 0 0.34 0 0 Z " fill="#B5AAA2" transform="translate(87,127)"/>
<path d="M0 0 C0.66 0 1.32 0 2 0 C0.62804139 3.09709467 -0.93792501 5.15870525 -3.375 7.5 C-3.99761719 8.10328125 -4.62023437 8.7065625 -5.26171875 9.328125 C-6.12216797 10.15570313 -6.12216797 10.15570313 -7 11 C-8.0828125 12.11375 -8.0828125 12.11375 -9.1875 13.25 C-14.10714286 18 -14.10714286 18 -17 18 C-17 17.34 -17 16.68 -17 16 C-11.52380952 11 -11.52380952 11 -9 11 C-8.67 10.01 -8.34 9.02 -8 8 C-6.01739574 6.31267723 -4.0167658 4.64633943 -2 3 C-1.34 2.01 -0.68 1.02 0 0 Z " fill="#BAAEA5" transform="translate(174,117)"/>
<path d="M0 0 C0.79921875 0.00902344 1.5984375 0.01804688 2.421875 0.02734375 C3.02515625 0.03894531 3.6284375 0.05054688 4.25 0.0625 C4.91 1.7125 5.57 3.3625 6.25 5.0625 C5.26 4.4025 4.27 3.7425 3.25 3.0625 C3.25 2.4025 3.25 1.7425 3.25 1.0625 C1.93 1.0625 0.61 1.0625 -0.75 1.0625 C-1.08 2.7125 -1.41 4.3625 -1.75 6.0625 C-5.40316671 4.81273244 -6.53065836 4.39151247 -8.75 1.0625 C-5.75519083 0.1901588 -3.11424089 -0.04579766 0 0 Z " fill="#EDE9E4" transform="translate(80.75,190.9375)"/>
<path d="M0 0 C0.66 0.33 1.32 0.66 2 1 C2 3.97 2 6.94 2 10 C1.01 9.67 0.02 9.34 -1 9 C-1 8.34 -1 7.68 -1 7 C-1.99 6.67 -2.98 6.34 -4 6 C-3.67 4.35 -3.34 2.7 -3 1 C-2.01 0.67 -1.02 0.34 0 0 Z " fill="#FAF7F1" transform="translate(91,191)"/>
<path d="M0 0 C-2.26896632 1.31582063 -4.54003187 2.62775236 -6.8125 3.9375 C-7.45509766 4.31068359 -8.09769531 4.68386719 -8.75976562 5.06835938 C-11.48316424 6.63466635 -14.01108122 8.00369374 -17 9 C-18.20882096 11.00016466 -18.20882096 11.00016466 -19 13 C-19.33 12.34 -19.66 11.68 -20 11 C-15.91067386 5.33785611 -7.47171169 -2.49057056 0 0 Z " fill="#B2A69E" transform="translate(184,138)"/>
<path d="M0 0 C0.268125 0.639375 0.53625 1.27875 0.8125 1.9375 C1.88667752 4.33131686 1.88667752 4.33131686 5 5 C5.10054688 5.70769531 5.20109375 6.41539063 5.3046875 7.14453125 C6.34304652 11.40880339 8.61225313 14.81441259 10.8203125 18.57421875 C11.20960937 19.37472656 11.59890625 20.17523438 12 21 C11.67 21.66 11.34 22.32 11 23 C9.72298179 20.98285723 8.45339806 18.9616067 7.1875 16.9375 C6.83107422 16.37611328 6.47464844 15.81472656 6.10742188 15.23632812 C0 5.43083429 0 5.43083429 0 0 Z " fill="#B1A69D" transform="translate(80,120)"/>
<path d="M0 0 C0.99 0 1.98 0 3 0 C3.21761603 4.35232068 2.58249168 7.84691343 1.4296875 11.984375 C0.8601529 14.2581335 0.8601529 14.2581335 1.125 17.6875 C0.97057963 21.77963988 -0.37712542 22.98112279 -3 26 C-0.26213592 5.52427184 -0.26213592 5.52427184 2 1 C1.34 0.67 0.68 0.34 0 0 Z " fill="#A7998E" transform="translate(213,95)"/>
<path d="M0 0 C1.670625 0.061875 1.670625 0.061875 3.375 0.125 C2.055 0.455 0.735 0.785 -0.625 1.125 C-0.625 2.775 -0.625 4.425 -0.625 6.125 C-1.615 6.125 -2.605 6.125 -3.625 6.125 C-4.615 6.455 -5.605 6.785 -6.625 7.125 C-8.13059539 5.16117993 -9.51631683 3.34236634 -10.625 1.125 C-9.449375 1.434375 -9.449375 1.434375 -8.25 1.75 C-7.38375 1.87375 -6.5175 1.9975 -5.625 2.125 C-3.625 0.125 -3.625 0.125 0 0 Z " fill="#F7F3EC" transform="translate(115.625,189.875)"/>
<path d="M0 0 C0.66 0.33 1.32 0.66 2 1 C1.4409112 4.24271506 0.5867822 5.93057424 -2 8 C-2.66 8 -3.32 8 -4 8 C-4 8.66 -4 9.32 -4 10 C-2.68 10.33 -1.36 10.66 0 11 C0 11.66 0 12.32 0 13 C0.66 13 1.32 13 2 13 C1.34 14.32 0.68 15.64 0 17 C-0.4125 16.21625 -0.825 15.4325 -1.25 14.625 C-3.0392777 11.94108344 -4.04988139 11.11901051 -7 10 C-7 9.34 -7 8.68 -7 8 C-6.21625 7.566875 -5.4325 7.13375 -4.625 6.6875 C-1.58313785 4.73201719 -1.01018099 3.39788151 0 0 Z " fill="#AA9B90" transform="translate(135,91)"/>
<path d="M0 0 C0.53109375 0.17402344 1.0621875 0.34804687 1.609375 0.52734375 C4.61306572 1.12121071 7.20668028 0.86021606 10.25 0.5625 C11.86648437 0.40974609 11.86648437 0.40974609 13.515625 0.25390625 C14.33546875 0.17011719 15.1553125 0.08632812 16 0 C16 0.99 16 1.98 16 3 C10.39 3 4.78 3 -1 3 C-0.67 2.01 -0.34 1.02 0 0 Z " fill="#FAF7F1" transform="translate(123,177)"/>
<path d="M0 0 C0.99 0.33 1.98 0.66 3 1 C2.3125 3.375 2.3125 3.375 1 6 C-1.625 7.3125 -1.625 7.3125 -4 8 C-4 8.66 -4 9.32 -4 10 C-3.34 10.33 -2.68 10.66 -2 11 C-2.99 11 -3.98 11 -5 11 C-4.67 9.02 -4.34 7.04 -4 5 C-3.01 4.67 -2.02 4.34 -1 4 C-0.26676204 1.98491642 -0.26676204 1.98491642 0 0 Z " fill="#F3F1EB" transform="translate(132,91)"/>
<path d="M0 0 C0.33 0 0.66 0 1 0 C1.02578125 0.556875 1.0515625 1.11375 1.078125 1.6875 C1.52373169 7.68293548 3.05072502 11.76741536 6 17 C5.01 17 4.02 17 3 17 C-0.78003299 11.04604246 -1.46751243 6.89092794 0 0 Z " fill="#BAB1AA" transform="translate(116,95)"/>
<path d="M0 0 C0.721875 0.185625 1.44375 0.37125 2.1875 0.5625 C5.12826973 1.01995307 7.14103058 0.73516357 10 0 C8.68 2.64 7.36 5.28 6 8 C3.87961365 5.38485683 1.86908256 2.80362384 0 0 Z " fill="#F9F6EF" transform="translate(51,192)"/>
<path d="M0 0 C1.65 0 3.3 0 5 0 C5.33 3.3 5.66 6.6 6 10 C3.16032769 7.16032769 1.1653147 4.35997108 -1 1 C-0.67 0.67 -0.34 0.34 0 0 Z " fill="#F7F3ED" transform="translate(80,103)"/>
<path d="M0 0 C0.99 0.33 1.98 0.66 3 1 C2.67 3.31 2.34 5.62 2 8 C0.35 8 -1.3 8 -3 8 C-2.01 5.36 -1.02 2.72 0 0 Z " fill="#DDD2C7" transform="translate(247,200)"/>
<path d="M0 0 C0.66 0.33 1.32 0.66 2 1 C0.44384991 2.29930979 -1.1202168 3.58914138 -2.6875 4.875 C-3.55761719 5.59429687 -4.42773438 6.31359375 -5.32421875 7.0546875 C-7.8477646 8.88932376 -10.06338486 9.99467229 -13 11 C-9.0299782 6.78185183 -4.69159716 3.38772897 0 0 Z " fill="#AFA59C" transform="translate(204,144)"/>
<path d="M0 0 C4.04420651 1.77945087 7.46078487 4.39529673 11 7 C10.67 7.66 10.34 8.32 10 9 C9.01 8.34 8.02 7.68 7 7 C6.67 8.32 6.34 9.64 6 11 C5.566875 9.88625 5.13375 8.7725 4.6875 7.625 C3.30088881 3.82487666 3.30088881 3.82487666 0 2 C0 1.34 0 0.68 0 0 Z " fill="#ACA29B" transform="translate(86,95)"/>
<path d="M0 0 C1.18771723 3.42943519 0.80226223 5.37784675 -0.4375 8.75 C-0.72496094 9.54921875 -1.01242188 10.3484375 -1.30859375 11.171875 C-1.53675781 11.77515625 -1.76492187 12.3784375 -2 13 C-2.99 12.67 -3.98 12.34 -5 12 C-3.68938409 7.76570244 -2.05643741 3.92592596 0 0 Z " fill="#F3EFEA" transform="translate(223,113)"/>
<path d="M0 0 C0 0.66 0 1.32 0 2 C0.66 2 1.32 2 2 2 C1.34 3.32 0.68 4.64 0 6 C-4 6 -4 6 -7 5 C-2.25 0 -2.25 0 0 0 Z " fill="#F6F7F5" transform="translate(174,122)"/>
<path d="M0 0 C0.66 0.33 1.32 0.66 2 1 C-0.25 3.5625 -0.25 3.5625 -3 6 C-5.125 6.0625 -5.125 6.0625 -7 5 C-8.75 2.9375 -8.75 2.9375 -10 1 C-8.906875 1.20625 -7.81375 1.4125 -6.6875 1.625 C-2.9161599 2.40346525 -2.9161599 2.40346525 0 0 Z " fill="#B4A89E" transform="translate(155,135)"/>
<path d="M0 0 C0.66 0.33 1.32 0.66 2 1 C1.54625 1.825 1.0925 2.65 0.625 3.5 C-1.16307742 7.35124368 -2.07368903 10.86722799 -3 15 C-3.33 15 -3.66 15 -4 15 C-4.34650743 9.34037856 -3.48055609 5.96111218 -1 1 C-0.67 0.67 -0.34 0.34 0 0 Z " fill="#B1A59B" transform="translate(119,84)"/>
<path d="M0 0 C1.051875 -0.00386719 1.051875 -0.00386719 2.125 -0.0078125 C4 0.125 4 0.125 6 1.125 C5.67 2.115 5.34 3.105 5 4.125 C4.34 3.465 3.68 2.805 3 2.125 C0.04211431 1.7082448 0.04211431 1.7082448 -3 2.125 C-4.7511573 3.5416747 -4.7511573 3.5416747 -6 5.125 C-6.66 5.125 -7.32 5.125 -8 5.125 C-6.04422224 0.79434924 -4.70931171 -0.01731365 0 0 Z " fill="#C8B4A4" transform="translate(198,190.875)"/>
<path d="M0 0 C4.42117715 1.35091524 6.443343 3.1650145 9 7 C9.75 9.3125 9.75 9.3125 10 11 C7.96824376 8.96824376 5.93875748 6.93690165 3.9375 4.875 C1.94207047 2.83136814 1.94207047 2.83136814 -1 1 C-0.67 0.67 -0.34 0.34 0 0 Z " fill="#AEA59E" transform="translate(75,103)"/>
<path d="M0 0 C2.475 0.495 2.475 0.495 5 1 C5 1.66 5 2.32 5 3 C5.66 3.33 6.32 3.66 7 4 C5.35 4.66 3.7 5.32 2 6 C2 6.66 2 7.32 2 8 C1.34 8 0.68 8 0 8 C0.66 6.35 1.32 4.7 2 3 C1.34 2.67 0.68 2.34 0 2 C0 1.34 0 0.68 0 0 Z " fill="#B2A79E" transform="translate(137,96)"/>
<path d="M0 0 C0.33 0 0.66 0 1 0 C0.98839844 0.90363281 0.97679687 1.80726563 0.96484375 2.73828125 C0.95582031 3.91777344 0.94679687 5.09726563 0.9375 6.3125 C0.92589844 7.48425781 0.91429687 8.65601563 0.90234375 9.86328125 C0.85100102 13.03059195 0.85100102 13.03059195 2 16 C1.01 16 0.02 16 -1 16 C-0.67 10.72 -0.34 5.44 0 0 Z " fill="#B68F6F" transform="translate(41,192)"/>
<path d="M0 0 C-1.32 1.65 -2.64 3.3 -4 5 C-4 3.68 -4 2.36 -4 1 C-7.63 1 -11.26 1 -15 1 C-15 0.67 -15 0.34 -15 0 C-4.44191344 -1.33257403 -4.44191344 -1.33257403 0 0 Z " fill="#FDF8F0" transform="translate(135,190)"/>
<path d="M0 0 C0.33 0.99 0.66 1.98 1 3 C-0.1446875 3.6496875 -0.1446875 3.6496875 -1.3125 4.3125 C-3.58093768 5.73686785 -5.2199723 7.03260097 -7 9 C-7.99 8.67 -8.98 8.34 -10 8 C-6.7 5.36 -3.4 2.72 0 0 Z " fill="#F6F4F1" transform="translate(159,80)"/>
<path d="M0 0 C0.66 0.33 1.32 0.66 2 1 C-0.10618315 3.94865641 -2.39391727 6.4837822 -5 9 C-5.66 8.34 -6.32 7.68 -7 7 C-4.66666667 4.66666667 -2.33333333 2.33333333 0 0 Z " fill="#F6F3EE" transform="translate(171,144)"/>
<path d="M0 0 C0.66 0.33 1.32 0.66 2 1 C1.75 3.875 1.75 3.875 1 7 C-1.0625 8.375 -1.0625 8.375 -3 9 C-2.44271087 5.65626525 -1.64826111 2.96687001 0 0 Z " fill="#F9F5ED" transform="translate(192,124)"/>
<path d="M0 0 C0.33 0.99 0.66 1.98 1 3 C-0.14453125 5.2265625 -0.14453125 5.2265625 -1.8125 7.625 C-2.35519531 8.42164062 -2.89789063 9.21828125 -3.45703125 10.0390625 C-5 12 -5 12 -7 13 C-5.125 8.25 -5.125 8.25 -4 6 C-3.34 6 -2.68 6 -2 6 C-1.34 4.02 -0.68 2.04 0 0 Z " fill="#ADA198" transform="translate(183,104)"/>
<path d="M0 0 C1.98 0.99 1.98 0.99 4 2 C4 2.66 4 3.32 4 4 C3.01 4 2.02 4 1 4 C1.33 6.64 1.66 9.28 2 12 C1.34 12 0.68 12 0 12 C0 8.04 0 4.08 0 0 Z " fill="#F8EEE2" transform="translate(166,196)"/>
<path d="M0 0 C0.33 0 0.66 0 1 0 C1 2.64 1 5.28 1 8 C2.32 8.33 3.64 8.66 5 9 C4.34 9 3.68 9 3 9 C3 9.66 3 10.32 3 11 C1.68 11 0.36 11 -1 11 C-0.67 7.37 -0.34 3.74 0 0 Z " fill="#F0E9E3" transform="translate(155,173)"/>
<path d="M0 0 C1.32 0.33 2.64 0.66 4 1 C3.34 2.32 2.68 3.64 2 5 C0.35 5 -1.3 5 -3 5 C-2.01 3.35 -1.02 1.7 0 0 Z " fill="#DAD3CD" transform="translate(189,155)"/>
<path d="M0 0 C0.66 0.33 1.32 0.66 2 1 C2.75 3.9375 2.75 3.9375 3 7 C2.34 7.66 1.68 8.32 1 9 C-1.125 3.375 -1.125 3.375 0 0 Z " fill="#F7F2EE" transform="translate(138,161)"/>
<path d="M0 0 C0.66 0 1.32 0 2 0 C0.61811547 3.21043882 -0.92421903 5.04936365 -3.625 7.25 C-4.57246094 8.03117187 -4.57246094 8.03117187 -5.5390625 8.828125 C-6.02117187 9.21484375 -6.50328125 9.6015625 -7 10 C-5.15014033 6.06048404 -2.92434659 3.21678125 0 0 Z " fill="#AF9D8F" transform="translate(174,117)"/>
<path d="M0 0 C0.99 0 1.98 0 3 0 C3 1.98 3 3.96 3 6 C1.68 5.67 0.36 5.34 -1 5 C-0.67 3.35 -0.34 1.7 0 0 Z " fill="#B39780" transform="translate(202,202)"/>
<path d="M0 0 C0.66 0 1.32 0 2 0 C1.34 2.31 0.68 4.62 0 7 C-0.99 7 -1.98 7 -3 7 C-2.25 2.25 -2.25 2.25 0 0 Z " fill="#B7A28D" transform="translate(61,192)"/>
<path d="M0 0 C1.32 0.33 2.64 0.66 4 1 C3 4 3 4 0 6 C-0.66 5.67 -1.32 5.34 -2 5 C-1.34 3.35 -0.68 1.7 0 0 Z " fill="#F6F3F0" transform="translate(163,153)"/>
<path d="M0 0 C0.99 0.33 1.98 0.66 3 1 C3.33 2.98 3.66 4.96 4 7 C2.35 5.35 0.7 3.7 -1 2 C-0.67 1.34 -0.34 0.68 0 0 Z " fill="#F6F2EC" transform="translate(92,128)"/>
<path d="M0 0 C3 2 3 2 3.6875 4.125 C3.790625 4.74375 3.89375 5.3625 4 6 C2.35 6 0.7 6 -1 6 C-0.67 4.02 -0.34 2.04 0 0 Z " fill="#C0A48D" transform="translate(257,202)"/>
<path d="M0 0 C1.65 0 3.3 0 5 0 C5 2.64 5 5.28 5 8 C4.67 8 4.34 8 4 8 C4 6.02 4 4.04 4 2 C2.68 2.33 1.36 2.66 0 3 C0 2.01 0 1.02 0 0 Z " fill="#EFE4D6" transform="translate(201,200)"/>
<path d="M0 0 C1.32 0 2.64 0 4 0 C4 1.65 4 3.3 4 5 C2.68 5.33 1.36 5.66 0 6 C0 4.02 0 2.04 0 0 Z " fill="#FDFCF9" transform="translate(76,196)"/>
<path d="M0 0 C3 3.75 3 3.75 3 6 C2.01 6 1.02 6 0 6 C-0.66 6.66 -1.32 7.32 -2 8 C-1.47731534 5.23723823 -0.89130413 2.6739124 0 0 Z " fill="#E7D5C6" transform="translate(104,193)"/>
<path d="M0 0 C0.33 0 0.66 0 1 0 C1.75 3.1875 1.75 3.1875 2 7 C0.0625 9.9375 0.0625 9.9375 -2 12 C-1.34 8.04 -0.68 4.08 0 0 Z " fill="#9D8F84" transform="translate(212,109)"/>
<path d="M0 0 C0.99 0 1.98 0 3 0 C3.33 0.99 3.66 1.98 4 3 C3.01 3 2.02 3 1 3 C1 5.31 1 7.62 1 10 C0.67 10 0.34 10 0 10 C0 6.7 0 3.4 0 0 Z " fill="#F3E7D9" transform="translate(81,196)"/>
<path d="M0 0 C0.33 0 0.66 0 1 0 C1 2.97 1 5.94 1 9 C0.34 9 -0.32 9 -1 9 C-1 8.34 -1 7.68 -1 7 C-1.99 6.67 -2.98 6.34 -4 6 C-3.01 5.67 -2.02 5.34 -1 5 C-0.67 3.35 -0.34 1.7 0 0 Z " fill="#F0E6DB" transform="translate(177,193)"/>
<path d="M0 0 C3.375 -0.1875 3.375 -0.1875 7 0 C7.66 0.99 8.32 1.98 9 3 C8.01 3.33 7.02 3.66 6 4 C5.34 3.67 4.68 3.34 4 3 C4 2.34 4 1.68 4 1 C2.68 0.67 1.36 0.34 0 0 Z " fill="#C8B5A6" transform="translate(149,191)"/>
<path d="M0 0 C1.98 0.99 3.96 1.98 6 3 C3 5 3 5 1 5 C1 4.34 1 3.68 1 3 C0.34 3 -0.32 3 -1 3 C-0.67 2.01 -0.34 1.02 0 0 Z " fill="#F9F4EE" transform="translate(92,145)"/>
<path d="M0 0 C0.99 0.99 1.98 1.98 3 3 C1.68 4.65 0.36 6.3 -1 8 C-2 6 -2 6 -1.0625 2.875 C-0.5365625 1.451875 -0.5365625 1.451875 0 0 Z " fill="#F1EFEC" transform="translate(94,136)"/>
<path d="M0 0 C0.99 0 1.98 0 3 0 C3.33 1.98 3.66 3.96 4 6 C3.01 6 2.02 6 1 6 C0.67 4.02 0.34 2.04 0 0 Z " fill="#F7F2EE" transform="translate(99,104)"/>
<path d="M0 0 C0.66 0 1.32 0 2 0 C2 1.32 2 2.64 2 4 C0.35 4.66 -1.3 5.32 -3 6 C-1.125 1.125 -1.125 1.125 0 0 Z " fill="#F1F0EA" transform="translate(204,102)"/>
<path d="M0 0 C1.5 1.3125 1.5 1.3125 3 3 C3 3.99 3 4.98 3 6 C2.34 6 1.68 6 1 6 C1 6.66 1 7.32 1 8 C0.34 8 -0.32 8 -1 8 C-0.67 5.36 -0.34 2.72 0 0 Z " fill="#F0EDEA" transform="translate(185,98)"/>
</svg>
