<svg width="157" height="105" viewBox="0 0 157 105" fill="none" xmlns="http://www.w3.org/2000/svg">
<path d="M50.88 103.966C48.97 103.596 48.75 102.876 48.75 97.1659C48.75 91.6059 48.38 90.3359 45.88 87.3059C42.45 83.1659 31.72 74.4659 25.67 70.9159C23.3 69.5159 20.15 66.5259 18.69 64.2659C13.85 56.7959 -0.359952 27.1759 0.480048 26.3059C0.930048 25.8359 2.68005 25.7559 4.37005 26.1259C7.19005 26.7459 10.06 29.3859 13.22 34.2759C14.24 35.8459 14.34 35.4259 13.82 31.6559C13.49 29.1859 12.61 25.1459 11.89 22.6959C9.96004 16.1859 12.19 15.3659 18.85 20.1559C25.52 24.9659 27.39 26.8859 27.98 29.5559C28.32 31.1259 29.65 33.3859 30.92 34.5859C33.35 36.8659 34.78 39.8159 38.71 50.6559L41.06 57.1559L49.44 61.3759C54.05 63.6959 59.14 66.8459 60.76 68.3759C66.66 73.9759 70.9401 85.4059 71.7701 97.8359C72.1101 102.906 71.93 103.576 70.08 104.076C67.77 104.696 54.19 104.616 50.88 103.966ZM69.9901 95.4059C69.5901 91.4159 68.18 85.2259 66.84 81.6559C63.36 72.3559 58.43 67.7559 44.87 61.1559C38.75 58.1859 32.4 54.4059 30.77 52.7659C23.76 45.7659 16.5 42.5859 16.5 46.5259C16.5 49.0859 23.75 57.7759 29.09 61.6159C33.22 64.5859 36.2 68.2859 35.23 69.2559C34.38 70.1059 16.58 52.0959 15.55 49.3359C14.97 47.7859 14.76 45.4659 15.08 44.1759C15.5 42.5059 14.6 40.1559 11.94 35.9959C8.11005 30.0059 6.23004 28.1159 3.35004 27.3359C1.39004 26.8159 1.62004 27.4259 9.52004 43.6559C18.21 61.5059 21.3 65.9859 27.99 70.5059C37.39 76.8459 45.74 83.8959 48.23 87.5759C49.95 90.1359 50.5 92.3759 50.5 96.8059V102.656H60.6001H70.7L69.9901 95.4059ZM38.5 54.6859C38.5 54.1559 37.87 52.2459 37.1 50.4359C36.33 48.6359 34.91 45.2359 33.95 42.8959C32.28 38.8559 28.86 34.5159 29.9 37.7659C30.14 38.5259 31.34 42.3059 32.55 46.1559C33.77 50.0059 35.21 53.7159 35.76 54.4059C36.93 55.8859 38.5 56.0559 38.5 54.6859ZM31.21 47.5159C30.44 45.6659 29.04 40.6859 28.1 36.4459C26.52 29.3359 23.46 23.3659 22.1 24.7259C21.79 25.0359 22.68 29.9859 24.08 35.7259C26.02 43.6659 27.27 46.7859 29.32 48.7759C30.79 50.2259 32.14 51.2859 32.31 51.1359C32.48 50.9959 31.99 49.3659 31.21 47.5159ZM22.43 35.0259C21.23 30.1459 19.63 24.9359 18.87 23.4359C17.58 20.9159 13.82 18.0059 12.95 18.8759C12.74 19.0759 13.21 21.6459 13.98 24.5859C14.76 27.5259 15.68 32.2659 16.04 35.1359C16.4 38.0059 16.99 40.7959 17.35 41.3559C17.98 42.3259 23.71 44.6259 24.3 44.1359C24.46 44.0059 23.62 39.9059 22.43 35.0259ZM85.47 104.006C84.18 103.656 84.04 102.356 84.61 95.8759C85.51 85.7959 86.1701 83.2759 89.7101 76.5159C93.6301 69.0359 96.53 66.4259 106.58 61.3859L115 57.1559L118.15 48.3259C119.88 43.4659 122.67 37.7759 124.35 35.6959C126.03 33.6059 127.7 30.7159 128.06 29.2759C128.42 27.8259 130.13 25.5159 131.86 24.1359C133.59 22.7559 135.55 21.1759 136.21 20.6359C138.55 18.7259 142.39 17.3959 143.9 17.9759C145.23 18.4859 145.25 19.1459 144.06 23.3559C143.31 25.9959 142.43 29.9559 142.11 32.1559C141.6 35.5859 141.69 35.8859 142.76 34.2459C146.08 29.1259 149.19 26.5559 152.75 25.9859C154.96 25.6359 156.5 25.8059 156.5 26.3859C156.5 27.7759 139.66 61.5759 137.29 64.9259C136.22 66.4459 132.56 69.5559 129.17 71.8359C120.5 77.6459 111.02 85.6759 109.12 88.8059C108.11 90.4659 107.5 93.6959 107.5 97.4259V103.386L102.86 104.016C97.9 104.696 87.99 104.696 85.47 104.006ZM105.68 95.2359C106.32 88.7659 106.66 88.0259 110.76 83.9259C113.18 81.5059 119.39 76.4859 124.58 72.7659C134.54 65.6059 137.47 62.1659 142.55 51.6559C144.28 48.0759 147.2 42.2059 149.04 38.6059C155.48 26.0359 155.49 24.0959 149.09 29.7159C144.12 34.0759 140.43 41.0459 141.16 44.6959C141.6 46.9059 140.97 48.8059 138.52 52.6359C136.74 55.3959 134.97 57.6559 134.58 57.6559C134.19 57.6559 131.02 60.3659 127.55 63.6859C124.07 67.0059 121.05 69.5459 120.84 69.3259C119.77 68.2559 122.33 65.1859 128.02 60.7159C131.5 57.9859 135.75 53.6959 137.47 51.1959C142.16 44.3859 139.84 42.6059 132.18 47.1259C129.88 48.4759 126.73 50.9559 125.17 52.6159C123.62 54.2759 117.23 58.1559 110.99 61.2259C93.1401 70.0059 87.8101 77.4359 85.8801 96.2159L85.22 102.736L95.11 102.446L105 102.156L105.68 95.2359ZM121.69 51.7659C122.26 50.3359 123.28 47.1259 123.96 44.6559C124.64 42.1859 125.53 39.0359 125.94 37.6559L126.69 35.1559L124.97 37.5059C123.56 39.4259 117.5 53.7759 117.5 55.1859C117.5 56.6359 120.84 53.9059 121.69 51.7659ZM131.88 35.8659C134.89 24.0459 134.8 24.6559 133.52 24.6559C131.76 24.6559 129.48 29.2659 128.04 35.7659C127.26 39.2759 125.93 44.3359 125.08 47.0059L123.53 51.8559L126.4 49.0059C128.59 46.8159 129.86 43.7659 131.88 35.8659ZM136.76 42.9259C138.66 42.3759 138.73 42.1559 140.91 30.1559C141.71 25.7559 142.67 21.3659 143.04 20.4059C143.87 18.2459 143.13 18.1959 140.07 20.2059C137.28 22.0359 136.26 24.3759 133.54 35.3259C131.07 45.2059 131.08 45.0459 133.25 44.1459C134.21 43.7559 135.79 43.2059 136.76 42.9259ZM73 59.4659C59.67 48.6359 48.85 36.8559 45.55 29.5859C42.1 21.9759 43.4 11.3959 48.47 5.84587C51.4 2.63587 60.26 -0.634136 64 0.105864C65.1 0.325864 66.95 0.535865 68.11 0.575865C69.27 0.625865 72.28 2.47587 74.8 4.69587C79.21 8.56587 79.43 8.64587 80.48 6.69587C82.31 3.26587 89.3301 0.355866 95.7401 0.365866C100.25 0.365866 102.32 0.935868 105.46 3.01587C110.58 6.39587 112.24 9.00587 113.5 15.6659C115.48 26.0759 110.83 35.3059 96.8501 48.7359C88.7401 56.5259 80.07 63.6859 78.86 63.5959C78.39 63.5559 75.75 61.6959 73 59.4659ZM91.64 51.0159C101.18 42.4559 108.64 33.4559 110.83 27.8859C115.45 16.0759 109.65 4.19587 98.25 2.11587C92.23 1.01587 87.7301 2.39587 82.9601 6.80587L78.59 10.8259L75.59 7.41587C70.54 1.65587 62.18 0.175864 54.82 3.74586C48.72 6.69586 46.37 10.4659 45.74 18.2759C45.28 23.9959 45.55 25.4059 48.1 30.4559C51.51 37.2159 63.77 49.9959 75.87 59.3959C78.69 61.5959 78.77 61.6059 81.37 59.7459C82.81 58.7159 87.44 54.7859 91.64 51.0159ZM85.5 44.3159C85.5 43.5759 84.38 42.4659 83 41.8359C81.62 41.2159 80.5 40.3159 80.5 39.8359C80.5 39.3659 81.62 38.4659 83 37.8359C84.38 37.2159 85.51 35.9059 85.53 34.9259C85.56 33.5359 86 33.7459 87.62 35.9059C88.74 37.4159 90.3 38.6559 91.08 38.6559C93.33 38.6559 92.73 40.2259 90 41.4759C88.62 42.0959 87.5 43.2959 87.5 44.1359C87.5 44.9759 87.05 45.6559 86.5 45.6559C85.95 45.6559 85.5 45.0559 85.5 44.3159ZM88.05 40.5659C89.08 38.9059 86.77 36.9859 85.39 38.3659C84.23 39.5259 84.96 41.6559 86.5 41.6559C86.99 41.6559 87.68 41.1659 88.05 40.5659ZM62.78 28.5959C62.05 26.6459 60.51 25.1059 58.56 24.3759C54.76 22.9359 54.75 22.4759 58.44 20.8459C60.06 20.1259 61.97 18.2159 62.69 16.5959C64.24 13.0859 65.25 12.8459 65.68 15.8859C65.86 17.1159 67.4501 19.0359 69.2101 20.1359C73.0801 22.5659 73.24 23.2559 70.12 24.0359C68.7 24.3959 67.0601 26.0559 66.0701 28.1459C65.1601 30.0759 64.3 31.6559 64.17 31.6559C64.04 31.6559 63.42 30.2759 62.78 28.5959ZM66.55 24.6059L68.61 22.5459L66.36 20.2159L64.11 17.8759L62.19 20.3259C60.31 22.7059 60.3101 22.8159 62.1301 24.6559C64.4701 27.0159 64.14 27.0159 66.55 24.6059Z" fill="white"/>
</svg>
