<svg width="222" height="146" viewBox="0 0 222 146" fill="none" xmlns="http://www.w3.org/2000/svg">
<path d="M56.5 144.656C56.5 144.056 60.52 143.656 66.56 143.656C73.01 143.656 76.4 144.016 76 144.656C75.66 145.206 71.16 145.656 65.94 145.656C60.31 145.656 56.5 145.256 56.5 144.656ZM144.5 144.656C144.5 144.056 148.33 143.656 154 143.656C159.67 143.656 163.5 144.056 163.5 144.656C163.5 145.256 159.67 145.656 154 145.656C148.33 145.656 144.5 145.256 144.5 144.656ZM0 122.156V113.656H3.68C11.29 113.656 15.41 116.736 15.47 122.456C15.52 127.686 11.84 130.656 5.3 130.656H0V122.156ZM10.48 127.186C13.42 121.706 10.8 114.656 5.85 114.656C3.59 114.656 3.5 114.956 3.5 122.156V129.656H6.33C8.32 129.656 9.56 128.916 10.48 127.186ZM20.5 128.656C17.74 125.896 17.74 118.656 20.51 116.146C22.65 114.216 24.67 114.886 22.68 116.876C20.53 119.026 21.26 125.506 23.95 128.206C26.22 130.466 26.26 130.656 24.45 130.656C23.38 130.656 21.6 129.756 20.5 128.656ZM30.46 128.466C34.6 124.026 32.28 115.216 26.74 114.376C24.49 114.026 24.66 113.926 27.66 113.806C30.62 113.686 31.82 114.246 33.91 116.736C35.33 118.426 36.5 120.866 36.5 122.156C36.5 124.886 32 130.656 29.87 130.656C28.78 130.656 28.93 130.106 30.46 128.466ZM39.25 129.996C40.09 129.656 40.5 127.086 40.5 122.156C40.5 117.226 40.09 114.656 39.25 114.316C38.56 114.036 39.12 113.766 40.5 113.706C42.34 113.626 44.4 115.126 48.29 119.376L53.59 125.156L53.29 119.406C53.03 114.266 53.21 113.656 54.95 113.656C56.47 113.656 56.63 113.926 55.7 114.856C54.99 115.566 54.48 119.116 54.46 123.606L54.42 131.156L47.99 124.156L41.55 117.156L41.53 122.706C41.51 125.756 42.04 128.796 42.7 129.456C43.63 130.386 43.24 130.636 40.95 130.576C39.33 130.536 38.56 130.276 39.25 129.996ZM61.11 125.406C62.49 122.516 64.09 118.916 64.66 117.406C65.23 115.896 66.09 114.656 66.58 114.656C67.07 114.656 68.66 117.016 70.11 119.906C71.57 122.796 73.63 126.396 74.7 127.906L76.64 130.656H73.57C71.55 130.656 70.5 130.156 70.5 129.206C70.5 128.406 69.98 126.606 69.34 125.206C67.1 120.296 60.43 123.446 61.82 128.756C62.17 130.116 61.79 130.656 60.45 130.656C58.72 130.656 58.77 130.286 61.11 125.406ZM67.31 120.586C67.11 119.986 66.52 119.506 66 119.506C65.48 119.506 64.89 119.986 64.69 120.586C64.49 121.176 65.08 121.656 66 121.656C66.92 121.656 67.51 121.176 67.31 120.586ZM81.5 122.656C81.5 114.236 80.8 113.166 77.33 116.306C75.61 117.866 75.5 117.836 75.5 115.806C75.5 113.786 75.97 113.656 83.5 113.656C89.8 113.656 91.5 113.966 91.5 115.096C91.5 117.216 89.58 118.036 88.89 116.216C88.56 115.356 87.66 114.656 86.89 114.656C85.82 114.656 85.5 116.486 85.5 122.656C85.5 129.986 85.33 130.656 83.5 130.656C81.67 130.656 81.5 129.986 81.5 122.656ZM94.76 122.706C95.14 117.186 94.95 114.616 94.15 114.286C93.52 114.026 94.35 113.776 96 113.736L99 113.656L98.68 122.156C98.38 129.976 98.19 130.656 96.28 130.656C94.32 130.656 94.24 130.256 94.76 122.706ZM104.67 128.346C103.37 126.956 102.5 124.736 102.5 122.806C102.5 119.006 105.07 114.656 107.32 114.656C108.55 114.656 108.63 114.926 107.7 115.856C107.04 116.516 106.5 119.186 106.5 121.786C106.5 125.696 106.95 126.866 109.13 128.586L111.77 130.656H109.31C107.96 130.656 105.87 129.616 104.67 128.346ZM114.53 128.836C119.06 125.166 116.8 115.456 111.15 114.346C109.74 114.076 110.14 113.886 112.3 113.796C116.84 113.606 120.5 117.336 120.5 122.156C120.5 126.056 116.94 130.656 113.93 130.656C112.61 130.656 112.73 130.296 114.53 128.836ZM124.3 129.456C124.97 128.786 125.5 125.566 125.5 122.156C125.5 118.746 124.97 115.526 124.3 114.856C123.37 113.926 123.67 113.656 125.68 113.656C127.24 113.656 128.89 114.556 129.83 115.906C132.04 119.106 137.15 124.656 137.88 124.656C138.9 124.656 138.58 117.676 137.46 115.586C136.62 114.016 136.76 113.656 138.21 113.656C139.81 113.656 139.97 114.536 139.68 122.156C139.5 126.826 139.08 130.656 138.75 130.656C137.92 130.656 128.53 120.336 128.52 119.406C128.51 118.996 128.01 118.656 127.41 118.656C126.71 118.656 126.44 120.786 126.66 124.656C126.97 130.056 126.8 130.656 125.05 130.656C123.53 130.656 123.37 130.386 124.3 129.456ZM151.95 128.206C148.89 125.136 148.68 119.906 151.49 116.666C152.91 115.026 154.91 114.226 158.4 113.896C162.64 113.486 163.46 113.706 164.44 115.536C165.73 117.966 164.36 118.406 162.5 116.156C160.61 113.876 155.88 114.286 154.06 116.876C151.77 120.136 152.15 124.086 155.09 127.576C157.16 130.036 157.35 130.656 156.04 130.656C155.14 130.656 153.3 129.556 151.95 128.206ZM162 127.156C162 124.486 162.42 123.656 163.75 123.656C165.08 123.656 165.5 124.486 165.5 127.156C165.5 129.826 165.08 130.656 163.75 130.656C162.42 130.656 162 129.826 162 127.156ZM172.17 122.906C174.12 118.646 176.06 114.786 176.48 114.336C176.9 113.886 178.93 116.816 180.99 120.836C183.06 124.866 185.2 128.716 185.75 129.406C186.49 130.336 186.12 130.656 184.27 130.656C182.36 130.656 181.4 129.756 180 126.656C177.73 121.616 174.37 121.146 172.53 125.596C171.86 127.216 171.6 129.016 171.96 129.596C172.34 130.206 171.77 130.656 170.62 130.656C168.77 130.656 168.87 130.126 172.17 122.906ZM176.86 120.166C176.55 119.336 175.89 118.916 175.4 119.216C173.98 120.096 174.35 121.656 175.97 121.656C176.86 121.656 177.21 121.066 176.86 120.166ZM188.5 129.786C188.5 129.316 189.33 127.856 190.34 126.536C191.35 125.226 193.42 122.016 194.94 119.406L197.69 114.656H194.1C192.12 114.656 190.5 115.106 190.5 115.656C190.5 116.206 190.05 116.656 189.5 116.656C188.95 116.656 188.5 115.976 188.5 115.156C188.5 113.986 189.83 113.656 194.5 113.656C200.89 113.656 201.72 114.476 199.12 118.186C198.36 119.266 196.55 122.296 195.09 124.906L192.44 129.656H196.47C198.69 129.656 200.5 129.206 200.5 128.656C200.5 128.106 200.94 127.656 201.47 127.656C202 127.656 202.18 128.336 201.86 129.156C201.43 130.276 199.65 130.656 194.89 130.656C191.38 130.656 188.5 130.266 188.5 129.786ZM204.03 129.886C204.59 129.486 205.87 127.296 206.88 125.026C208.34 121.706 209.1 120.996 210.73 121.426C212.19 121.806 212.62 121.556 212.26 120.556C211.98 119.786 211.26 119.266 210.66 119.396C209.24 119.706 210.78 115.396 212.27 114.896C212.86 114.706 215.18 118.166 217.41 122.596L221.47 130.656H218.99C217.61 130.656 216.5 130.076 216.5 129.356C216.5 123.036 209.27 119.866 208.01 125.636C207.65 127.266 207.64 129.066 207.98 129.636C208.36 130.236 207.47 130.646 205.81 130.636C204.26 130.636 203.46 130.296 204.03 129.886ZM82.88 103.966C80.97 103.596 80.75 102.876 80.75 97.1659C80.75 91.6059 80.38 90.3359 77.88 87.3059C74.45 83.1659 63.72 74.4659 57.67 70.9159C55.3 69.5159 52.15 66.5259 50.69 64.2659C45.85 56.7959 31.64 27.1759 32.48 26.3059C32.93 25.8359 34.68 25.7559 36.37 26.1259C39.19 26.7459 42.06 29.3859 45.22 34.2759C46.24 35.8459 46.34 35.4259 45.82 31.6559C45.49 29.1859 44.61 25.1459 43.89 22.6959C41.96 16.1859 44.19 15.3659 50.85 20.1559C57.52 24.9659 59.39 26.8859 59.98 29.5559C60.32 31.1259 61.65 33.3859 62.92 34.5859C65.35 36.8659 66.78 39.8159 70.71 50.6559L73.06 57.1559L81.44 61.3759C86.05 63.6959 91.14 66.8459 92.76 68.3759C98.66 73.9759 102.94 85.4059 103.77 97.8359C104.11 102.906 103.93 103.576 102.08 104.076C99.77 104.696 86.19 104.616 82.88 103.966ZM101.99 95.4059C101.59 91.4159 100.18 85.2259 98.84 81.6559C95.36 72.3559 90.43 67.7559 76.87 61.1559C70.75 58.1859 64.4 54.4059 62.77 52.7659C55.76 45.7659 48.5 42.5859 48.5 46.5259C48.5 49.0859 55.75 57.7759 61.09 61.6159C65.22 64.5859 68.2 68.2859 67.23 69.2559C66.38 70.1059 48.58 52.0959 47.55 49.3359C46.97 47.7859 46.76 45.4659 47.08 44.1759C47.5 42.5059 46.6 40.1559 43.94 35.9959C40.11 30.0059 38.23 28.1159 35.35 27.3359C33.39 26.8159 33.62 27.4259 41.52 43.6559C50.21 61.5059 53.3 65.9859 59.99 70.5059C69.39 76.8459 77.74 83.8959 80.23 87.5759C81.95 90.1359 82.5 92.3759 82.5 96.8059V102.656H92.6H102.7L101.99 95.4059ZM70.5 54.6859C70.5 54.1559 69.87 52.2459 69.1 50.4359C68.33 48.6359 66.91 45.2359 65.95 42.8959C64.28 38.8559 60.86 34.5159 61.9 37.7659C62.14 38.5259 63.34 42.3059 64.55 46.1559C65.77 50.0059 67.21 53.7159 67.76 54.4059C68.93 55.8859 70.5 56.0559 70.5 54.6859ZM63.21 47.5159C62.44 45.6659 61.04 40.6859 60.1 36.4459C58.52 29.3359 55.46 23.3659 54.1 24.7259C53.79 25.0359 54.68 29.9859 56.08 35.7259C58.02 43.6659 59.27 46.7859 61.32 48.7759C62.79 50.2259 64.14 51.2859 64.31 51.1359C64.48 50.9959 63.99 49.3659 63.21 47.5159ZM54.43 35.0259C53.23 30.1459 51.63 24.9359 50.87 23.4359C49.58 20.9159 45.82 18.0059 44.95 18.8759C44.74 19.0759 45.21 21.6459 45.98 24.5859C46.76 27.5259 47.68 32.2659 48.04 35.1359C48.4 38.0059 48.99 40.7959 49.35 41.3559C49.98 42.3259 55.71 44.6259 56.3 44.1359C56.46 44.0059 55.62 39.9059 54.43 35.0259ZM117.47 104.006C116.18 103.656 116.04 102.356 116.61 95.8759C117.51 85.7959 118.17 83.2759 121.71 76.5159C125.63 69.0359 128.53 66.4259 138.58 61.3859L147 57.1559L150.15 48.3259C151.88 43.4659 154.67 37.7759 156.35 35.6959C158.03 33.6059 159.7 30.7159 160.06 29.2759C160.42 27.8259 162.13 25.5159 163.86 24.1359C165.59 22.7559 167.55 21.1759 168.21 20.6359C170.55 18.7259 174.39 17.3959 175.9 17.9759C177.23 18.4859 177.25 19.1459 176.06 23.3559C175.31 25.9959 174.43 29.9559 174.11 32.1559C173.6 35.5859 173.69 35.8859 174.76 34.2459C178.08 29.1259 181.19 26.5559 184.75 25.9859C186.96 25.6359 188.5 25.8059 188.5 26.3859C188.5 27.7759 171.66 61.5759 169.29 64.9259C168.22 66.4459 164.56 69.5559 161.17 71.8359C152.5 77.6459 143.02 85.6759 141.12 88.8059C140.11 90.4659 139.5 93.6959 139.5 97.4259V103.386L134.86 104.016C129.9 104.696 119.99 104.696 117.47 104.006ZM137.68 95.2359C138.32 88.7659 138.66 88.0259 142.76 83.9259C145.18 81.5059 151.39 76.4859 156.58 72.7659C166.54 65.6059 169.47 62.1659 174.55 51.6559C176.28 48.0759 179.2 42.2059 181.04 38.6059C187.48 26.0359 187.49 24.0959 181.09 29.7159C176.12 34.0759 172.43 41.0459 173.16 44.6959C173.6 46.9059 172.97 48.8059 170.52 52.6359C168.74 55.3959 166.97 57.6559 166.58 57.6559C166.19 57.6559 163.02 60.3659 159.55 63.6859C156.07 67.0059 153.05 69.5459 152.84 69.3259C151.77 68.2559 154.33 65.1859 160.02 60.7159C163.5 57.9859 167.75 53.6959 169.47 51.1959C174.16 44.3859 171.84 42.6059 164.18 47.1259C161.88 48.4759 158.73 50.9559 157.17 52.6159C155.62 54.2759 149.23 58.1559 142.99 61.2259C125.14 70.0059 119.81 77.4359 117.88 96.2159L117.22 102.736L127.11 102.446L137 102.156L137.68 95.2359ZM153.69 51.7659C154.26 50.3359 155.28 47.1259 155.96 44.6559C156.64 42.1859 157.53 39.0359 157.94 37.6559L158.69 35.1559L156.97 37.5059C155.56 39.4259 149.5 53.7759 149.5 55.1859C149.5 56.6359 152.84 53.9059 153.69 51.7659ZM163.88 35.8659C166.89 24.0459 166.8 24.6559 165.52 24.6559C163.76 24.6559 161.48 29.2659 160.04 35.7659C159.26 39.2759 157.93 44.3359 157.08 47.0059L155.53 51.8559L158.4 49.0059C160.59 46.8159 161.86 43.7659 163.88 35.8659ZM168.76 42.9259C170.66 42.3759 170.73 42.1559 172.91 30.1559C173.71 25.7559 174.67 21.3659 175.04 20.4059C175.87 18.2459 175.13 18.1959 172.07 20.2059C169.28 22.0359 168.26 24.3759 165.54 35.3259C163.07 45.2059 163.08 45.0459 165.25 44.1459C166.21 43.7559 167.79 43.2059 168.76 42.9259ZM105 59.4659C91.67 48.6359 80.85 36.8559 77.55 29.5859C74.1 21.9759 75.4 11.3959 80.47 5.84587C83.4 2.63587 92.26 -0.634136 96 0.105864C97.1 0.325864 98.95 0.535865 100.11 0.575865C101.27 0.625865 104.28 2.47587 106.8 4.69587C111.21 8.56587 111.43 8.64587 112.48 6.69587C114.31 3.26587 121.33 0.355866 127.74 0.365866C132.25 0.365866 134.32 0.935868 137.46 3.01587C142.58 6.39587 144.24 9.00587 145.5 15.6659C147.48 26.0759 142.83 35.3059 128.85 48.7359C120.74 56.5259 112.07 63.6859 110.86 63.5959C110.39 63.5559 107.75 61.6959 105 59.4659ZM123.64 51.0159C133.18 42.4559 140.64 33.4559 142.83 27.8859C147.45 16.0759 141.65 4.19587 130.25 2.11587C124.23 1.01587 119.73 2.39587 114.96 6.80587L110.59 10.8259L107.59 7.41587C102.54 1.65587 94.18 0.175864 86.82 3.74586C80.72 6.69586 78.37 10.4659 77.74 18.2759C77.28 23.9959 77.55 25.4059 80.1 30.4559C83.51 37.2159 95.77 49.9959 107.87 59.3959C110.69 61.5959 110.77 61.6059 113.37 59.7459C114.81 58.7159 119.44 54.7859 123.64 51.0159ZM117.5 44.3159C117.5 43.5759 116.38 42.4659 115 41.8359C113.62 41.2159 112.5 40.3159 112.5 39.8359C112.5 39.3659 113.62 38.4659 115 37.8359C116.38 37.2159 117.51 35.9059 117.53 34.9259C117.56 33.5359 118 33.7459 119.62 35.9059C120.74 37.4159 122.3 38.6559 123.08 38.6559C125.33 38.6559 124.73 40.2259 122 41.4759C120.62 42.0959 119.5 43.2959 119.5 44.1359C119.5 44.9759 119.05 45.6559 118.5 45.6559C117.95 45.6559 117.5 45.0559 117.5 44.3159ZM120.05 40.5659C121.08 38.9059 118.77 36.9859 117.39 38.3659C116.23 39.5259 116.96 41.6559 118.5 41.6559C118.99 41.6559 119.68 41.1659 120.05 40.5659ZM94.78 28.5959C94.05 26.6459 92.51 25.1059 90.56 24.3759C86.76 22.9359 86.75 22.4759 90.44 20.8459C92.06 20.1259 93.97 18.2159 94.69 16.5959C96.24 13.0859 97.25 12.8459 97.68 15.8859C97.86 17.1159 99.45 19.0359 101.21 20.1359C105.08 22.5659 105.24 23.2559 102.12 24.0359C100.7 24.3959 99.06 26.0559 98.07 28.1459C97.16 30.0759 96.3 31.6559 96.17 31.6559C96.04 31.6559 95.42 30.2759 94.78 28.5959ZM98.55 24.6059L100.61 22.5459L98.36 20.2159L96.11 17.8759L94.19 20.3259C92.31 22.7059 92.31 22.8159 94.13 24.6559C96.47 27.0159 96.14 27.0159 98.55 24.6059Z" fill="#FFB547"/>
</svg>
